<svg xmlns="http://www.w3.org/2000/svg" viewBox="0 0 50 50"><defs><style>.cls-1{fill:#5b5b5b;}</style></defs><g id="Layer_2" data-name="Layer 2"><g id="Layer_1-2" data-name="Layer 1"><path class="cls-1" d="M41.39,6.13V43.87a25.88,25.88,0,0,0,3.51-3.74V9.87A25.88,25.88,0,0,0,41.39,6.13Z"/><path class="cls-1" d="M34.3,48.21c.66-.27,1.3-.56,1.93-.88V2.67c-.63-.32-1.27-.61-1.93-.88Z"/><path class="cls-1" d="M29.36,49.61c.65-.11,1.3-.25,1.93-.41V.8C30.66.64,30,.5,29.36.39Z"/><path class="cls-1" d="M0,25A25,25,0,0,0,25,50V0A25,25,0,0,0,0,25Z"/><path class="cls-1" d="M38.38,46.11c.67-.42,1.32-.88,1.94-1.36V5.25c-.62-.48-1.27-.94-1.94-1.36Z"/><path class="cls-1" d="M47.05,13.21V36.79a25,25,0,0,0,0-23.58Z"/></g></g></svg>