<svg width="28" height="28" viewBox="0 0 28 28" fill="none" xmlns="http://www.w3.org/2000/svg">
<g id="Dashboard" filter="url(#filter0_d_312_2319)">
<g id="Group">
<path id="Vector" d="M5.72 18.68C5.1 17.45 4.75 16.04 4.75 14.57C4.75 9.46 8.89 5.32 14 5.32C19.11 5.32 23.25 9.46 23.25 14.57C23.25 16.04 22.9 17.45 22.28 18.68" stroke="black" stroke-width="1.5" stroke-linecap="round" stroke-linejoin="round"/>
<g id="Group_2">
<path id="Vector_2" d="M14 15.6C14.5689 15.6 15.03 15.1388 15.03 14.57C15.03 14.0011 14.5689 13.54 14 13.54C13.4311 13.54 12.97 14.0011 12.97 14.57C12.97 15.1388 13.4311 15.6 14 15.6Z" stroke="black" stroke-width="1.5" stroke-linecap="round" stroke-linejoin="round"/>
<path id="Vector_3" d="M14 14.57L17.19 11.38" stroke="black" stroke-width="1.5" stroke-linecap="round" stroke-linejoin="round"/>
</g>
</g>
</g>
<defs>
<filter id="filter0_d_312_2319" x="0" y="4.57" width="28" height="22.8602" filterUnits="userSpaceOnUse" color-interpolation-filters="sRGB">
<feFlood flood-opacity="0" result="BackgroundImageFix"/>
<feColorMatrix in="SourceAlpha" type="matrix" values="0 0 0 0 0 0 0 0 0 0 0 0 0 0 0 0 0 0 127 0" result="hardAlpha"/>
<feOffset dy="4"/>
<feGaussianBlur stdDeviation="2"/>
<feComposite in2="hardAlpha" operator="out"/>
<feColorMatrix type="matrix" values="0 0 0 0 0 0 0 0 0 0 0 0 0 0 0 0 0 0 0.25 0"/>
<feBlend mode="normal" in2="BackgroundImageFix" result="effect1_dropShadow_312_2319"/>
<feBlend mode="normal" in="SourceGraphic" in2="effect1_dropShadow_312_2319" result="shape"/>
</filter>
</defs>
</svg>
