<svg width="28" height="30" viewBox="0 0 28 30" fill="none" xmlns="http://www.w3.org/2000/svg">
<g id="Home" filter="url(#filter0_d_312_2318)">
<g id="Group">
<path id="Vector" d="M16.78 21.25H11.22V15.3C11.22 14.75 11.67 14.3 12.22 14.3H15.78C16.33 14.3 16.78 14.75 16.78 15.3V21.25V21.25Z" stroke="black" stroke-width="1.5" stroke-linecap="round" stroke-linejoin="round"/>
<path id="Vector_2" d="M23.25 11.39V18.1C23.25 19.84 21.91 21.25 20.25 21.25H7.75C6.09 21.25 4.75 19.84 4.75 18.1V11.39C4.75 10.45 5.14 9.57 5.83 8.97L12.08 3.48C13.19 2.5 14.81 2.5 15.92 3.48L22.17 8.97C22.86 9.57 23.25 10.45 23.25 11.39Z" stroke="black" stroke-width="1.5" stroke-linecap="round" stroke-linejoin="round"/>
</g>
</g>
<defs>
<filter id="filter0_d_312_2318" x="0" y="1.995" width="28" height="28.005" filterUnits="userSpaceOnUse" color-interpolation-filters="sRGB">
<feFlood flood-opacity="0" result="BackgroundImageFix"/>
<feColorMatrix in="SourceAlpha" type="matrix" values="0 0 0 0 0 0 0 0 0 0 0 0 0 0 0 0 0 0 127 0" result="hardAlpha"/>
<feOffset dy="4"/>
<feGaussianBlur stdDeviation="2"/>
<feComposite in2="hardAlpha" operator="out"/>
<feColorMatrix type="matrix" values="0 0 0 0 0 0 0 0 0 0 0 0 0 0 0 0 0 0 0.25 0"/>
<feBlend mode="normal" in2="BackgroundImageFix" result="effect1_dropShadow_312_2318"/>
<feBlend mode="normal" in="SourceGraphic" in2="effect1_dropShadow_312_2318" result="shape"/>
</filter>
</defs>
</svg>
