<svg xmlns="http://www.w3.org/2000/svg" viewBox="0 0 24 24">
  <g id="Group_1904" data-name="Group 1904" transform="translate(-331.5 -7111.609)">
    <g id="Group_1903" data-name="Group 1903">
      <path id="Path_6696" data-name="Path 6696" d="M345.5,7126.609h-7a4,4,0,0,1-4-4v-1a4,4,0,0,1,4-4h7l3.873-2.647a2,2,0,0,1,3.129,1.652V7127.6a2,2,0,0,1-3.129,1.652Z" fill="none" stroke="#323232" stroke-linecap="round" stroke-linejoin="round" stroke-width="1.5"/>
      <line id="Line_322" data-name="Line 322" y2="9" transform="translate(345.5 7117.609)" fill="none" stroke="#323232" stroke-linecap="round" stroke-linejoin="round" stroke-width="1.5"/>
      <path id="Path_6697" data-name="Path 6697" d="M337.5,7126.609l1.529,3.859a1.8,1.8,0,0,0,1.67,1.141h0a1.814,1.814,0,0,0,1.672-2.486l-.989-2.514" fill="none" stroke="#323232" stroke-linecap="round" stroke-linejoin="round" stroke-width="1.5"/>
    </g>
    <path id="Path_6698" data-name="Path 6698" d="M331.5,7111.609h24v24h-24Z" fill="none"/>
  </g>
</svg>
