<svg xmlns="http://www.w3.org/2000/svg" viewBox="0 0 24 24">
  <g id="Group_1503" data-name="Group 1503" transform="translate(-2187.5 -2855.529)">
    <g id="Group_977" data-name="Group 977">
      <g id="Group_975" data-name="Group 975">
        <g id="Group_974" data-name="Group 974">
          <g id="Group_973" data-name="Group 973">
            <g id="Group_972" data-name="Group 972">
              <g id="Group_971" data-name="Group 971">
                <path id="Path_6233" data-name="Path 6233" d="M2199.5,2870.5v-1a2.947,2.947,0,0,0-3-3h-3a2.947,2.947,0,0,0-3,3v1" fill="none" stroke="#323232" stroke-linecap="round" stroke-linejoin="round" stroke-width="1.5"/>
              </g>
            </g>
          </g>
        </g>
      </g>
      <path id="Path_6234" data-name="Path 6234" d="M2201.5,2863.529a2,2,0,0,0,4,0" fill="none" stroke="#323232" stroke-linecap="round" stroke-linejoin="round" stroke-width="1.5"/>
      <path id="Path_6235" data-name="Path 6235" d="M2200.5,2860.529h6a2,2,0,0,1,2,2v5a2,2,0,0,1-2,2h-4" fill="none" stroke="#323232" stroke-linecap="round" stroke-linejoin="round" stroke-width="1.5"/>
      <g id="Group_976" data-name="Group 976">
        <path id="Path_6236" data-name="Path 6236" d="M2205.05,2873.029a6.642,6.642,0,0,1-2.631,2.683,6.51,6.51,0,0,1-8.919-2.683" fill="none" stroke="#323232" stroke-linecap="round" stroke-linejoin="round" stroke-width="1.5"/>
      </g>
      <circle id="Ellipse_125" data-name="Ellipse 125" cx="2.5" cy="2.5" r="2.5" transform="translate(2192.5 2858.529)" fill="none" stroke="#323232" stroke-linecap="round" stroke-linejoin="round" stroke-width="1.5"/>
      <path id="Path_6237" data-name="Path 6237" d="M2205.5,2875.53v-2.5H2203" fill="none" stroke="#323232" stroke-linecap="round" stroke-linejoin="round" stroke-width="1.5"/>
    </g>
    <path id="Path_6238" data-name="Path 6238" d="M2187.5,2855.529h24v24h-24Z" fill="none"/>
  </g>
</svg>