<svg width="470" height="378" viewBox="0 0 470 378" fill="none" xmlns="http://www.w3.org/2000/svg">
<g clip-path="url(#clip0_1343_9884)">
<path d="M-9 595.2C-9 588.479 -9 585.119 -7.69208 582.552C-6.5416 580.294 -4.70583 578.458 -2.44789 577.308C0.119055 576 3.47937 576 10.2 576H59.8C66.5206 576 69.8809 576 72.4479 577.308C74.7058 578.458 76.5416 580.294 77.6921 582.552C79 585.119 79 588.479 79 595.2V620.8C79 627.521 79 630.881 77.6921 633.448C76.5416 635.706 74.7058 637.542 72.4479 638.692C69.8809 640 66.5206 640 59.8 640H10.2C3.47937 640 0.119055 640 -2.44789 638.692C-4.70583 637.542 -6.5416 635.706 -7.69208 633.448C-9 630.881 -9 627.521 -9 620.8V595.2Z" fill="#d2cefe"/>
<path d="M191 595.2C191 588.479 191 585.119 192.308 582.552C193.458 580.294 195.294 578.458 197.552 577.308C200.119 576 203.479 576 210.2 576H259.8C266.521 576 269.881 576 272.448 577.308C274.706 578.458 276.542 580.294 277.692 582.552C279 585.119 279 588.479 279 595.2V620.8C279 627.521 279 630.881 277.692 633.448C276.542 635.706 274.706 637.542 272.448 638.692C269.881 640 266.521 640 259.8 640H210.2C203.479 640 200.119 640 197.552 638.692C195.294 637.542 193.458 635.706 192.308 633.448C191 630.881 191 627.521 191 620.8V595.2Z" fill="#d2cefe"/>
<path d="M91 559.2C91 552.479 91 549.119 92.3079 546.552C93.4584 544.294 95.2942 542.458 97.5521 541.308C100.119 540 103.479 540 110.2 540H159.8C166.521 540 169.881 540 172.448 541.308C174.706 542.458 176.542 544.294 177.692 546.552C179 549.119 179 552.479 179 559.2V584.8C179 591.521 179 594.881 177.692 597.448C176.542 599.706 174.706 601.542 172.448 602.692C169.881 604 166.521 604 159.8 604H110.2C103.479 604 100.119 604 97.5521 602.692C95.2942 601.542 93.4584 599.706 92.3079 597.448C91 594.881 91 591.521 91 584.8V559.2Z" fill="#d2cefe"/>
<path d="M291 559.2C291 552.479 291 549.119 292.308 546.552C293.458 544.294 295.294 542.458 297.552 541.308C300.119 540 303.479 540 310.2 540H359.8C366.521 540 369.881 540 372.448 541.308C374.706 542.458 376.542 544.294 377.692 546.552C379 549.119 379 552.479 379 559.2V584.8C379 591.521 379 594.881 377.692 597.448C376.542 599.706 374.706 601.542 372.448 602.692C369.881 604 366.521 604 359.8 604H310.2C303.479 604 300.119 604 297.552 602.692C295.294 601.542 293.458 599.706 292.308 597.448C291 594.881 291 591.521 291 584.8V559.2Z" fill="#d2cefe"/>
<path d="M-9 671.2C-9 664.479 -9 661.119 -7.69208 658.552C-6.5416 656.294 -4.70583 654.458 -2.44789 653.308C0.119055 652 3.47937 652 10.2 652H59.8C66.5206 652 69.8809 652 72.4479 653.308C74.7058 654.458 76.5416 656.294 77.6921 658.552C79 661.119 79 664.479 79 671.2V696.8C79 703.521 79 706.881 77.6921 709.448C76.5416 711.706 74.7058 713.542 72.4479 714.692C69.8809 716 66.5206 716 59.8 716H10.2C3.47937 716 0.119055 716 -2.44789 714.692C-4.70583 713.542 -6.5416 711.706 -7.69208 709.448C-9 706.881 -9 703.521 -9 696.8V671.2Z" fill="#d2cefe"/>
<path d="M191 671.2C191 664.479 191 661.119 192.308 658.552C193.458 656.294 195.294 654.458 197.552 653.308C200.119 652 203.479 652 210.2 652H259.8C266.521 652 269.881 652 272.448 653.308C274.706 654.458 276.542 656.294 277.692 658.552C279 661.119 279 664.479 279 671.2V696.8C279 703.521 279 706.881 277.692 709.448C276.542 711.706 274.706 713.542 272.448 714.692C269.881 716 266.521 716 259.8 716H210.2C203.479 716 200.119 716 197.552 714.692C195.294 713.542 193.458 711.706 192.308 709.448C191 706.881 191 703.521 191 696.8V671.2Z" fill="#d2cefe"/>
<path d="M91 635.2C91 628.479 91 625.119 92.3079 622.552C93.4584 620.294 95.2942 618.458 97.5521 617.308C100.119 616 103.479 616 110.2 616H159.8C166.521 616 169.881 616 172.448 617.308C174.706 618.458 176.542 620.294 177.692 622.552C179 625.119 179 628.479 179 635.2V660.8C179 667.521 179 670.881 177.692 673.448C176.542 675.706 174.706 677.542 172.448 678.692C169.881 680 166.521 680 159.8 680H110.2C103.479 680 100.119 680 97.5521 678.692C95.2942 677.542 93.4584 675.706 92.3079 673.448C91 670.881 91 667.521 91 660.8V635.2Z" fill="#d2cefe"/>
<path d="M291 635.2C291 628.479 291 625.119 292.308 622.552C293.458 620.294 295.294 618.458 297.552 617.308C300.119 616 303.479 616 310.2 616H359.8C366.521 616 369.881 616 372.448 617.308C374.706 618.458 376.542 620.294 377.692 622.552C379 625.119 379 628.479 379 635.2V660.8C379 667.521 379 670.881 377.692 673.448C376.542 675.706 374.706 677.542 372.448 678.692C369.881 680 366.521 680 359.8 680H310.2C303.479 680 300.119 680 297.552 678.692C295.294 677.542 293.458 675.706 292.308 673.448C291 670.881 291 667.521 291 660.8V635.2Z" fill="#d2cefe"/>
<path d="M-9 747.2C-9 740.479 -9 737.119 -7.69208 734.552C-6.5416 732.294 -4.70583 730.458 -2.44789 729.308C0.119055 728 3.47937 728 10.2 728H59.8C66.5206 728 69.8809 728 72.4479 729.308C74.7058 730.458 76.5416 732.294 77.6921 734.552C79 737.119 79 740.479 79 747.2V772.8C79 779.521 79 782.881 77.6921 785.448C76.5416 787.706 74.7058 789.542 72.4479 790.692C69.8809 792 66.5206 792 59.8 792H10.2C3.47937 792 0.119055 792 -2.44789 790.692C-4.70583 789.542 -6.5416 787.706 -7.69208 785.448C-9 782.881 -9 779.521 -9 772.8V747.2Z" fill="#d2cefe"/>
<path d="M191 747.2C191 740.479 191 737.119 192.308 734.552C193.458 732.294 195.294 730.458 197.552 729.308C200.119 728 203.479 728 210.2 728H259.8C266.521 728 269.881 728 272.448 729.308C274.706 730.458 276.542 732.294 277.692 734.552C279 737.119 279 740.479 279 747.2V772.8C279 779.521 279 782.881 277.692 785.448C276.542 787.706 274.706 789.542 272.448 790.692C269.881 792 266.521 792 259.8 792H210.2C203.479 792 200.119 792 197.552 790.692C195.294 789.542 193.458 787.706 192.308 785.448C191 782.881 191 779.521 191 772.8V747.2Z" fill="#d2cefe"/>
<path d="M391 595.2C391 588.479 391 585.119 392.308 582.552C393.458 580.294 395.294 578.458 397.552 577.308C400.119 576 403.479 576 410.2 576H459.8C466.521 576 469.881 576 472.448 577.308C474.706 578.458 476.542 580.294 477.692 582.552C479 585.119 479 588.479 479 595.2V620.8C479 627.521 479 630.881 477.692 633.448C476.542 635.706 474.706 637.542 472.448 638.692C469.881 640 466.521 640 459.8 640H410.2C403.479 640 400.119 640 397.552 638.692C395.294 637.542 393.458 635.706 392.308 633.448C391 630.881 391 627.521 391 620.8V595.2Z" fill="#d2cefe"/>
<path d="M391 671.2C391 664.479 391 661.119 392.308 658.552C393.458 656.294 395.294 654.458 397.552 653.308C400.119 652 403.479 652 410.2 652H459.8C466.521 652 469.881 652 472.448 653.308C474.706 654.458 476.542 656.294 477.692 658.552C479 661.119 479 664.479 479 671.2V696.8C479 703.521 479 706.881 477.692 709.448C476.542 711.706 474.706 713.542 472.448 714.692C469.881 716 466.521 716 459.8 716H410.2C403.479 716 400.119 716 397.552 714.692C395.294 713.542 393.458 711.706 392.308 709.448C391 706.881 391 703.521 391 696.8V671.2Z" fill="#d2cefe"/>
<path d="M391 747.2C391 740.479 391 737.119 392.308 734.552C393.458 732.294 395.294 730.458 397.552 729.308C400.119 728 403.479 728 410.2 728H459.8C466.521 728 469.881 728 472.448 729.308C474.706 730.458 476.542 732.294 477.692 734.552C479 737.119 479 740.479 479 747.2V772.8C479 779.521 479 782.881 477.692 785.448C476.542 787.706 474.706 789.542 472.448 790.692C469.881 792 466.521 792 459.8 792H410.2C403.479 792 400.119 792 397.552 790.692C395.294 789.542 393.458 787.706 392.308 785.448C391 782.881 391 779.521 391 772.8V747.2Z" fill="#d2cefe"/>
<path d="M91 711.2C91 704.479 91 701.119 92.3079 698.552C93.4584 696.294 95.2942 694.458 97.5521 693.308C100.119 692 103.479 692 110.2 692H159.8C166.521 692 169.881 692 172.448 693.308C174.706 694.458 176.542 696.294 177.692 698.552C179 701.119 179 704.479 179 711.2V736.8C179 743.521 179 746.881 177.692 749.448C176.542 751.706 174.706 753.542 172.448 754.692C169.881 756 166.521 756 159.8 756H110.2C103.479 756 100.119 756 97.5521 754.692C95.2942 753.542 93.4584 751.706 92.3079 749.448C91 746.881 91 743.521 91 736.8V711.2Z" fill="#d2cefe"/>
<path d="M291 711.2C291 704.479 291 701.119 292.308 698.552C293.458 696.294 295.294 694.458 297.552 693.308C300.119 692 303.479 692 310.2 692H359.8C366.521 692 369.881 692 372.448 693.308C374.706 694.458 376.542 696.294 377.692 698.552C379 701.119 379 704.479 379 711.2V736.8C379 743.521 379 746.881 377.692 749.448C376.542 751.706 374.706 753.542 372.448 754.692C369.881 756 366.521 756 359.8 756H310.2C303.479 756 300.119 756 297.552 754.692C295.294 753.542 293.458 751.706 292.308 749.448C291 746.881 291 743.521 291 736.8V711.2Z" fill="#d2cefe"/>
<path d="M91 787.2C91 780.479 91 777.119 92.3079 774.552C93.4584 772.294 95.2942 770.458 97.5521 769.308C100.119 768 103.479 768 110.2 768H159.8C166.521 768 169.881 768 172.448 769.308C174.706 770.458 176.542 772.294 177.692 774.552C179 777.119 179 780.479 179 787.2V812.8C179 819.521 179 822.881 177.692 825.448C176.542 827.706 174.706 829.542 172.448 830.692C169.881 832 166.521 832 159.8 832H110.2C103.479 832 100.119 832 97.5521 830.692C95.2942 829.542 93.4584 827.706 92.3079 825.448C91 822.881 91 819.521 91 812.8V787.2Z" fill="#d2cefe"/>
<path d="M291 787.2C291 780.479 291 777.119 292.308 774.552C293.458 772.294 295.294 770.458 297.552 769.308C300.119 768 303.479 768 310.2 768H359.8C366.521 768 369.881 768 372.448 769.308C374.706 770.458 376.542 772.294 377.692 774.552C379 777.119 379 780.479 379 787.2V812.8C379 819.521 379 822.881 377.692 825.448C376.542 827.706 374.706 829.542 372.448 830.692C369.881 832 366.521 832 359.8 832H310.2C303.479 832 300.119 832 297.552 830.692C295.294 829.542 293.458 827.706 292.308 825.448C291 822.881 291 819.521 291 812.8V787.2Z" fill="#d2cefe"/>
<path d="M-9 823.2C-9 816.479 -9 813.119 -7.69208 810.552C-6.5416 808.294 -4.70583 806.458 -2.44789 805.308C0.119055 804 3.47937 804 10.2 804H59.8C66.5206 804 69.8809 804 72.4479 805.308C74.7058 806.458 76.5416 808.294 77.6921 810.552C79 813.119 79 816.479 79 823.2V848.8C79 855.521 79 858.881 77.6921 861.448C76.5416 863.706 74.7058 865.542 72.4479 866.692C69.8809 868 66.5206 868 59.8 868H10.2C3.47937 868 0.119055 868 -2.44789 866.692C-4.70583 865.542 -6.5416 863.706 -7.69208 861.448C-9 858.881 -9 855.521 -9 848.8V823.2Z" fill="#d2cefe"/>
<path d="M191 823.2C191 816.479 191 813.119 192.308 810.552C193.458 808.294 195.294 806.458 197.552 805.308C200.119 804 203.479 804 210.2 804H259.8C266.521 804 269.881 804 272.448 805.308C274.706 806.458 276.542 808.294 277.692 810.552C279 813.119 279 816.479 279 823.2V848.8C279 855.521 279 858.881 277.692 861.448C276.542 863.706 274.706 865.542 272.448 866.692C269.881 868 266.521 868 259.8 868H210.2C203.479 868 200.119 868 197.552 866.692C195.294 865.542 193.458 863.706 192.308 861.448C191 858.881 191 855.521 191 848.8V823.2Z" fill="#d2cefe"/>
<path d="M-9 899.2C-9 892.479 -9 889.119 -7.69208 886.552C-6.5416 884.294 -4.70583 882.458 -2.44789 881.308C0.119055 880 3.47937 880 10.2 880H59.8C66.5206 880 69.8809 880 72.4479 881.308C74.7058 882.458 76.5416 884.294 77.6921 886.552C79 889.119 79 892.479 79 899.2V924.8C79 931.521 79 934.881 77.6921 937.448C76.5416 939.706 74.7058 941.542 72.4479 942.692C69.8809 944 66.5206 944 59.8 944H10.2C3.47937 944 0.119055 944 -2.44789 942.692C-4.70583 941.542 -6.5416 939.706 -7.69208 937.448C-9 934.881 -9 931.521 -9 924.8V899.2Z" fill="#d2cefe"/>
<path d="M191 899.2C191 892.479 191 889.119 192.308 886.552C193.458 884.294 195.294 882.458 197.552 881.308C200.119 880 203.479 880 210.2 880H259.8C266.521 880 269.881 880 272.448 881.308C274.706 882.458 276.542 884.294 277.692 886.552C279 889.119 279 892.479 279 899.2V924.8C279 931.521 279 934.881 277.692 937.448C276.542 939.706 274.706 941.542 272.448 942.692C269.881 944 266.521 944 259.8 944H210.2C203.479 944 200.119 944 197.552 942.692C195.294 941.542 193.458 939.706 192.308 937.448C191 934.881 191 931.521 191 924.8V899.2Z" fill="#d2cefe"/>
<path d="M91 863.2C91 856.479 91 853.119 92.3079 850.552C93.4584 848.294 95.2942 846.458 97.5521 845.308C100.119 844 103.479 844 110.2 844H159.8C166.521 844 169.881 844 172.448 845.308C174.706 846.458 176.542 848.294 177.692 850.552C179 853.119 179 856.479 179 863.2V888.8C179 895.521 179 898.881 177.692 901.448C176.542 903.706 174.706 905.542 172.448 906.692C169.881 908 166.521 908 159.8 908H110.2C103.479 908 100.119 908 97.5521 906.692C95.2942 905.542 93.4584 903.706 92.3079 901.448C91 898.881 91 895.521 91 888.8V863.2Z" fill="#d2cefe"/>
<path d="M291 863.2C291 856.479 291 853.119 292.308 850.552C293.458 848.294 295.294 846.458 297.552 845.308C300.119 844 303.479 844 310.2 844H359.8C366.521 844 369.881 844 372.448 845.308C374.706 846.458 376.542 848.294 377.692 850.552C379 853.119 379 856.479 379 863.2V888.8C379 895.521 379 898.881 377.692 901.448C376.542 903.706 374.706 905.542 372.448 906.692C369.881 908 366.521 908 359.8 908H310.2C303.479 908 300.119 908 297.552 906.692C295.294 905.542 293.458 903.706 292.308 901.448C291 898.881 291 895.521 291 888.8V863.2Z" fill="#d2cefe"/>
<path d="M-9 975.2C-9 968.479 -9 965.119 -7.69208 962.552C-6.5416 960.294 -4.70583 958.458 -2.44789 957.308C0.119055 956 3.47937 956 10.2 956H59.8C66.5206 956 69.8809 956 72.4479 957.308C74.7058 958.458 76.5416 960.294 77.6921 962.552C79 965.119 79 968.479 79 975.2V1000.8C79 1007.52 79 1010.88 77.6921 1013.45C76.5416 1015.71 74.7058 1017.54 72.4479 1018.69C69.8809 1020 66.5206 1020 59.8 1020H10.2C3.47937 1020 0.119055 1020 -2.44789 1018.69C-4.70583 1017.54 -6.5416 1015.71 -7.69208 1013.45C-9 1010.88 -9 1007.52 -9 1000.8V975.2Z" fill="#d2cefe"/>
<path d="M191 975.2C191 968.479 191 965.119 192.308 962.552C193.458 960.294 195.294 958.458 197.552 957.308C200.119 956 203.479 956 210.2 956H259.8C266.521 956 269.881 956 272.448 957.308C274.706 958.458 276.542 960.294 277.692 962.552C279 965.119 279 968.479 279 975.2V1000.8C279 1007.52 279 1010.88 277.692 1013.45C276.542 1015.71 274.706 1017.54 272.448 1018.69C269.881 1020 266.521 1020 259.8 1020H210.2C203.479 1020 200.119 1020 197.552 1018.69C195.294 1017.54 193.458 1015.71 192.308 1013.45C191 1010.88 191 1007.52 191 1000.8V975.2Z" fill="#d2cefe"/>
<path d="M391 823.2C391 816.479 391 813.119 392.308 810.552C393.458 808.294 395.294 806.458 397.552 805.308C400.119 804 403.479 804 410.2 804H459.8C466.521 804 469.881 804 472.448 805.308C474.706 806.458 476.542 808.294 477.692 810.552C479 813.119 479 816.479 479 823.2V848.8C479 855.521 479 858.881 477.692 861.448C476.542 863.706 474.706 865.542 472.448 866.692C469.881 868 466.521 868 459.8 868H410.2C403.479 868 400.119 868 397.552 866.692C395.294 865.542 393.458 863.706 392.308 861.448C391 858.881 391 855.521 391 848.8V823.2Z" fill="#d2cefe"/>
<path d="M391 899.2C391 892.479 391 889.119 392.308 886.552C393.458 884.294 395.294 882.458 397.552 881.308C400.119 880 403.479 880 410.2 880H459.8C466.521 880 469.881 880 472.448 881.308C474.706 882.458 476.542 884.294 477.692 886.552C479 889.119 479 892.479 479 899.2V924.8C479 931.521 479 934.881 477.692 937.448C476.542 939.706 474.706 941.542 472.448 942.692C469.881 944 466.521 944 459.8 944H410.2C403.479 944 400.119 944 397.552 942.692C395.294 941.542 393.458 939.706 392.308 937.448C391 934.881 391 931.521 391 924.8V899.2Z" fill="#d2cefe"/>
<path d="M391 975.2C391 968.479 391 965.119 392.308 962.552C393.458 960.294 395.294 958.458 397.552 957.308C400.119 956 403.479 956 410.2 956H459.8C466.521 956 469.881 956 472.448 957.308C474.706 958.458 476.542 960.294 477.692 962.552C479 965.119 479 968.479 479 975.2V1000.8C479 1007.52 479 1010.88 477.692 1013.45C476.542 1015.71 474.706 1017.54 472.448 1018.69C469.881 1020 466.521 1020 459.8 1020H410.2C403.479 1020 400.119 1020 397.552 1018.69C395.294 1017.54 393.458 1015.71 392.308 1013.45C391 1010.88 391 1007.52 391 1000.8V975.2Z" fill="#d2cefe"/>
<path d="M91 939.2C91 932.479 91 929.119 92.3079 926.552C93.4584 924.294 95.2942 922.458 97.5521 921.308C100.119 920 103.479 920 110.2 920H159.8C166.521 920 169.881 920 172.448 921.308C174.706 922.458 176.542 924.294 177.692 926.552C179 929.119 179 932.479 179 939.2V964.8C179 971.521 179 974.881 177.692 977.448C176.542 979.706 174.706 981.542 172.448 982.692C169.881 984 166.521 984 159.8 984H110.2C103.479 984 100.119 984 97.5521 982.692C95.2942 981.542 93.4584 979.706 92.3079 977.448C91 974.881 91 971.521 91 964.8V939.2Z" fill="#d2cefe"/>
<path d="M291 939.2C291 932.479 291 929.119 292.308 926.552C293.458 924.294 295.294 922.458 297.552 921.308C300.119 920 303.479 920 310.2 920H359.8C366.521 920 369.881 920 372.448 921.308C374.706 922.458 376.542 924.294 377.692 926.552C379 929.119 379 932.479 379 939.2V964.8C379 971.521 379 974.881 377.692 977.448C376.542 979.706 374.706 981.542 372.448 982.692C369.881 984 366.521 984 359.8 984H310.2C303.479 984 300.119 984 297.552 982.692C295.294 981.542 293.458 979.706 292.308 977.448C291 974.881 291 971.521 291 964.8V939.2Z" fill="#d2cefe"/>
<path d="M91 1015.2C91 1008.48 91 1005.12 92.3079 1002.55C93.4584 1000.29 95.2942 998.458 97.5521 997.308C100.119 996 103.479 996 110.2 996H159.8C166.521 996 169.881 996 172.448 997.308C174.706 998.458 176.542 1000.29 177.692 1002.55C179 1005.12 179 1008.48 179 1015.2V1040.8C179 1047.52 179 1050.88 177.692 1053.45C176.542 1055.71 174.706 1057.54 172.448 1058.69C169.881 1060 166.521 1060 159.8 1060H110.2C103.479 1060 100.119 1060 97.5521 1058.69C95.2942 1057.54 93.4584 1055.71 92.3079 1053.45C91 1050.88 91 1047.52 91 1040.8V1015.2Z" fill="#d2cefe"/>
<path d="M291 1015.2C291 1008.48 291 1005.12 292.308 1002.55C293.458 1000.29 295.294 998.458 297.552 997.308C300.119 996 303.479 996 310.2 996H359.8C366.521 996 369.881 996 372.448 997.308C374.706 998.458 376.542 1000.29 377.692 1002.55C379 1005.12 379 1008.48 379 1015.2V1040.8C379 1047.52 379 1050.88 377.692 1053.45C376.542 1055.71 374.706 1057.54 372.448 1058.69C369.881 1060 366.521 1060 359.8 1060H310.2C303.479 1060 300.119 1060 297.552 1058.69C295.294 1057.54 293.458 1055.71 292.308 1053.45C291 1050.88 291 1047.52 291 1040.8V1015.2Z" fill="#d2cefe"/>
<path d="M-9 367.2C-9 360.479 -9 357.119 -7.69208 354.552C-6.5416 352.294 -4.70583 350.458 -2.44789 349.308C0.119055 348 3.47937 348 10.2 348H59.8C66.5206 348 69.8809 348 72.4479 349.308C74.7058 350.458 76.5416 352.294 77.6921 354.552C79 357.119 79 360.479 79 367.2V392.8C79 399.521 79 402.881 77.6921 405.448C76.5416 407.706 74.7058 409.542 72.4479 410.692C69.8809 412 66.5206 412 59.8 412H10.2C3.47937 412 0.119055 412 -2.44789 410.692C-4.70583 409.542 -6.5416 407.706 -7.69208 405.448C-9 402.881 -9 399.521 -9 392.8V367.2Z" fill="#d2cefe"/>
<path d="M191 367.2C191 360.479 191 357.119 192.308 354.552C193.458 352.294 195.294 350.458 197.552 349.308C200.119 348 203.479 348 210.2 348H259.8C266.521 348 269.881 348 272.448 349.308C274.706 350.458 276.542 352.294 277.692 354.552C279 357.119 279 360.479 279 367.2V392.8C279 399.521 279 402.881 277.692 405.448C276.542 407.706 274.706 409.542 272.448 410.692C269.881 412 266.521 412 259.8 412H210.2C203.479 412 200.119 412 197.552 410.692C195.294 409.542 193.458 407.706 192.308 405.448C191 402.881 191 399.521 191 392.8V367.2Z" fill="#d2cefe"/>
<path d="M-9 443.2C-9 436.479 -9 433.119 -7.69208 430.552C-6.5416 428.294 -4.70583 426.458 -2.44789 425.308C0.119055 424 3.47937 424 10.2 424H59.8C66.5206 424 69.8809 424 72.4479 425.308C74.7058 426.458 76.5416 428.294 77.6921 430.552C79 433.119 79 436.479 79 443.2V468.8C79 475.521 79 478.881 77.6921 481.448C76.5416 483.706 74.7058 485.542 72.4479 486.692C69.8809 488 66.5206 488 59.8 488H10.2C3.47937 488 0.119055 488 -2.44789 486.692C-4.70583 485.542 -6.5416 483.706 -7.69208 481.448C-9 478.881 -9 475.521 -9 468.8V443.2Z" fill="#d2cefe"/>
<path d="M191 443.2C191 436.479 191 433.119 192.308 430.552C193.458 428.294 195.294 426.458 197.552 425.308C200.119 424 203.479 424 210.2 424H259.8C266.521 424 269.881 424 272.448 425.308C274.706 426.458 276.542 428.294 277.692 430.552C279 433.119 279 436.479 279 443.2V468.8C279 475.521 279 478.881 277.692 481.448C276.542 483.706 274.706 485.542 272.448 486.692C269.881 488 266.521 488 259.8 488H210.2C203.479 488 200.119 488 197.552 486.692C195.294 485.542 193.458 483.706 192.308 481.448C191 478.881 191 475.521 191 468.8V443.2Z" fill="#d2cefe"/>
<path d="M91 407.2C91 400.479 91 397.119 92.3079 394.552C93.4584 392.294 95.2942 390.458 97.5521 389.308C100.119 388 103.479 388 110.2 388H159.8C166.521 388 169.881 388 172.448 389.308C174.706 390.458 176.542 392.294 177.692 394.552C179 397.119 179 400.479 179 407.2V432.8C179 439.521 179 442.881 177.692 445.448C176.542 447.706 174.706 449.542 172.448 450.692C169.881 452 166.521 452 159.8 452H110.2C103.479 452 100.119 452 97.5521 450.692C95.2942 449.542 93.4584 447.706 92.3079 445.448C91 442.881 91 439.521 91 432.8V407.2Z" fill="#d2cefe"/>
<path d="M291 407.2C291 400.479 291 397.119 292.308 394.552C293.458 392.294 295.294 390.458 297.552 389.308C300.119 388 303.479 388 310.2 388H359.8C366.521 388 369.881 388 372.448 389.308C374.706 390.458 376.542 392.294 377.692 394.552C379 397.119 379 400.479 379 407.2V432.8C379 439.521 379 442.881 377.692 445.448C376.542 447.706 374.706 449.542 372.448 450.692C369.881 452 366.521 452 359.8 452H310.2C303.479 452 300.119 452 297.552 450.692C295.294 449.542 293.458 447.706 292.308 445.448C291 442.881 291 439.521 291 432.8V407.2Z" fill="#d2cefe"/>
<path d="M-9 519.2C-9 512.479 -9 509.119 -7.69208 506.552C-6.5416 504.294 -4.70583 502.458 -2.44789 501.308C0.119055 500 3.47937 500 10.2 500H59.8C66.5206 500 69.8809 500 72.4479 501.308C74.7058 502.458 76.5416 504.294 77.6921 506.552C79 509.119 79 512.479 79 519.2V544.8C79 551.521 79 554.881 77.6921 557.448C76.5416 559.706 74.7058 561.542 72.4479 562.692C69.8809 564 66.5206 564 59.8 564H10.2C3.47937 564 0.119055 564 -2.44789 562.692C-4.70583 561.542 -6.5416 559.706 -7.69208 557.448C-9 554.881 -9 551.521 -9 544.8V519.2Z" fill="#d2cefe"/>
<path d="M191 519.2C191 512.479 191 509.119 192.308 506.552C193.458 504.294 195.294 502.458 197.552 501.308C200.119 500 203.479 500 210.2 500H259.8C266.521 500 269.881 500 272.448 501.308C274.706 502.458 276.542 504.294 277.692 506.552C279 509.119 279 512.479 279 519.2V544.8C279 551.521 279 554.881 277.692 557.448C276.542 559.706 274.706 561.542 272.448 562.692C269.881 564 266.521 564 259.8 564H210.2C203.479 564 200.119 564 197.552 562.692C195.294 561.542 193.458 559.706 192.308 557.448C191 554.881 191 551.521 191 544.8V519.2Z" fill="#d2cefe"/>
<path d="M391 367.2C391 360.479 391 357.119 392.308 354.552C393.458 352.294 395.294 350.458 397.552 349.308C400.119 348 403.479 348 410.2 348H459.8C466.521 348 469.881 348 472.448 349.308C474.706 350.458 476.542 352.294 477.692 354.552C479 357.119 479 360.479 479 367.2V392.8C479 399.521 479 402.881 477.692 405.448C476.542 407.706 474.706 409.542 472.448 410.692C469.881 412 466.521 412 459.8 412H410.2C403.479 412 400.119 412 397.552 410.692C395.294 409.542 393.458 407.706 392.308 405.448C391 402.881 391 399.521 391 392.8V367.2Z" fill="#d2cefe"/>
<path d="M391 443.2C391 436.479 391 433.119 392.308 430.552C393.458 428.294 395.294 426.458 397.552 425.308C400.119 424 403.479 424 410.2 424H459.8C466.521 424 469.881 424 472.448 425.308C474.706 426.458 476.542 428.294 477.692 430.552C479 433.119 479 436.479 479 443.2V468.8C479 475.521 479 478.881 477.692 481.448C476.542 483.706 474.706 485.542 472.448 486.692C469.881 488 466.521 488 459.8 488H410.2C403.479 488 400.119 488 397.552 486.692C395.294 485.542 393.458 483.706 392.308 481.448C391 478.881 391 475.521 391 468.8V443.2Z" fill="#d2cefe"/>
<path d="M391 519.2C391 512.479 391 509.119 392.308 506.552C393.458 504.294 395.294 502.458 397.552 501.308C400.119 500 403.479 500 410.2 500H459.8C466.521 500 469.881 500 472.448 501.308C474.706 502.458 476.542 504.294 477.692 506.552C479 509.119 479 512.479 479 519.2V544.8C479 551.521 479 554.881 477.692 557.448C476.542 559.706 474.706 561.542 472.448 562.692C469.881 564 466.521 564 459.8 564H410.2C403.479 564 400.119 564 397.552 562.692C395.294 561.542 393.458 559.706 392.308 557.448C391 554.881 391 551.521 391 544.8V519.2Z" fill="#d2cefe"/>
<path d="M91 483.2C91 476.479 91 473.119 92.3079 470.552C93.4584 468.294 95.2942 466.458 97.5521 465.308C100.119 464 103.479 464 110.2 464H159.8C166.521 464 169.881 464 172.448 465.308C174.706 466.458 176.542 468.294 177.692 470.552C179 473.119 179 476.479 179 483.2V508.8C179 515.521 179 518.881 177.692 521.448C176.542 523.706 174.706 525.542 172.448 526.692C169.881 528 166.521 528 159.8 528H110.2C103.479 528 100.119 528 97.5521 526.692C95.2942 525.542 93.4584 523.706 92.3079 521.448C91 518.881 91 515.521 91 508.8V483.2Z" fill="#d2cefe"/>
<path d="M291 483.2C291 476.479 291 473.119 292.308 470.552C293.458 468.294 295.294 466.458 297.552 465.308C300.119 464 303.479 464 310.2 464H359.8C366.521 464 369.881 464 372.448 465.308C374.706 466.458 376.542 468.294 377.692 470.552C379 473.119 379 476.479 379 483.2V508.8C379 515.521 379 518.881 377.692 521.448C376.542 523.706 374.706 525.542 372.448 526.692C369.881 528 366.521 528 359.8 528H310.2C303.479 528 300.119 528 297.552 526.692C295.294 525.542 293.458 523.706 292.308 521.448C291 518.881 291 515.521 291 508.8V483.2Z" fill="#d2cefe"/>
<path d="M91 559.2C91 552.479 91 549.119 92.3079 546.552C93.4584 544.294 95.2942 542.458 97.5521 541.308C100.119 540 103.479 540 110.2 540H159.8C166.521 540 169.881 540 172.448 541.308C174.706 542.458 176.542 544.294 177.692 546.552C179 549.119 179 552.479 179 559.2V584.8C179 591.521 179 594.881 177.692 597.448C176.542 599.706 174.706 601.542 172.448 602.692C169.881 604 166.521 604 159.8 604H110.2C103.479 604 100.119 604 97.5521 602.692C95.2942 601.542 93.4584 599.706 92.3079 597.448C91 594.881 91 591.521 91 584.8V559.2Z" fill="#d2cefe"/>
<path d="M291 559.2C291 552.479 291 549.119 292.308 546.552C293.458 544.294 295.294 542.458 297.552 541.308C300.119 540 303.479 540 310.2 540H359.8C366.521 540 369.881 540 372.448 541.308C374.706 542.458 376.542 544.294 377.692 546.552C379 549.119 379 552.479 379 559.2V584.8C379 591.521 379 594.881 377.692 597.448C376.542 599.706 374.706 601.542 372.448 602.692C369.881 604 366.521 604 359.8 604H310.2C303.479 604 300.119 604 297.552 602.692C295.294 601.542 293.458 599.706 292.308 597.448C291 594.881 291 591.521 291 584.8V559.2Z" fill="#d2cefe"/>
<path d="M-9 141.2C-9 134.479 -9 131.119 -7.69208 128.552C-6.5416 126.294 -4.70583 124.458 -2.44789 123.308C0.119055 122 3.47937 122 10.2 122H59.8C66.5206 122 69.8809 122 72.4479 123.308C74.7058 124.458 76.5416 126.294 77.6921 128.552C79 131.119 79 134.479 79 141.2V166.8C79 173.521 79 176.881 77.6921 179.448C76.5416 181.706 74.7058 183.542 72.4479 184.692C69.8809 186 66.5206 186 59.8 186H10.2C3.47937 186 0.119055 186 -2.44789 184.692C-4.70583 183.542 -6.5416 181.706 -7.69208 179.448C-9 176.881 -9 173.521 -9 166.8V141.2Z" fill="#d2cefe"/>
<path d="M191 141.2C191 134.479 191 131.119 192.308 128.552C193.458 126.294 195.294 124.458 197.552 123.308C200.119 122 203.479 122 210.2 122H259.8C266.521 122 269.881 122 272.448 123.308C274.706 124.458 276.542 126.294 277.692 128.552C279 131.119 279 134.479 279 141.2V166.8C279 173.521 279 176.881 277.692 179.448C276.542 181.706 274.706 183.542 272.448 184.692C269.881 186 266.521 186 259.8 186H210.2C203.479 186 200.119 186 197.552 184.692C195.294 183.542 193.458 181.706 192.308 179.448C191 176.881 191 173.521 191 166.8V141.2Z" fill="#d2cefe"/>
<path d="M-9 217.2C-9 210.479 -9 207.119 -7.69208 204.552C-6.5416 202.294 -4.70583 200.458 -2.44789 199.308C0.119055 198 3.47937 198 10.2 198H59.8C66.5206 198 69.8809 198 72.4479 199.308C74.7058 200.458 76.5416 202.294 77.6921 204.552C79 207.119 79 210.479 79 217.2V242.8C79 249.521 79 252.881 77.6921 255.448C76.5416 257.706 74.7058 259.542 72.4479 260.692C69.8809 262 66.5206 262 59.8 262H10.2C3.47937 262 0.119055 262 -2.44789 260.692C-4.70583 259.542 -6.5416 257.706 -7.69208 255.448C-9 252.881 -9 249.521 -9 242.8V217.2Z" fill="#d2cefe"/>
<path d="M191 217.2C191 210.479 191 207.119 192.308 204.552C193.458 202.294 195.294 200.458 197.552 199.308C200.119 198 203.479 198 210.2 198H259.8C266.521 198 269.881 198 272.448 199.308C274.706 200.458 276.542 202.294 277.692 204.552C279 207.119 279 210.479 279 217.2V242.8C279 249.521 279 252.881 277.692 255.448C276.542 257.706 274.706 259.542 272.448 260.692C269.881 262 266.521 262 259.8 262H210.2C203.479 262 200.119 262 197.552 260.692C195.294 259.542 193.458 257.706 192.308 255.448C191 252.881 191 249.521 191 242.8V217.2Z" fill="#d2cefe"/>
<path d="M91 181.2C91 174.479 91 171.119 92.3079 168.552C93.4584 166.294 95.2942 164.458 97.5521 163.308C100.119 162 103.479 162 110.2 162H159.8C166.521 162 169.881 162 172.448 163.308C174.706 164.458 176.542 166.294 177.692 168.552C179 171.119 179 174.479 179 181.2V206.8C179 213.521 179 216.881 177.692 219.448C176.542 221.706 174.706 223.542 172.448 224.692C169.881 226 166.521 226 159.8 226H110.2C103.479 226 100.119 226 97.5521 224.692C95.2942 223.542 93.4584 221.706 92.3079 219.448C91 216.881 91 213.521 91 206.8V181.2Z" fill="#d2cefe"/>
<path d="M291 181.2C291 174.479 291 171.119 292.308 168.552C293.458 166.294 295.294 164.458 297.552 163.308C300.119 162 303.479 162 310.2 162H359.8C366.521 162 369.881 162 372.448 163.308C374.706 164.458 376.542 166.294 377.692 168.552C379 171.119 379 174.479 379 181.2V206.8C379 213.521 379 216.881 377.692 219.448C376.542 221.706 374.706 223.542 372.448 224.692C369.881 226 366.521 226 359.8 226H310.2C303.479 226 300.119 226 297.552 224.692C295.294 223.542 293.458 221.706 292.308 219.448C291 216.881 291 213.521 291 206.8V181.2Z" fill="#d2cefe"/>
<path d="M-9 293.2C-9 286.479 -9 283.119 -7.69208 280.552C-6.5416 278.294 -4.70583 276.458 -2.44789 275.308C0.119055 274 3.47937 274 10.2 274H59.8C66.5206 274 69.8809 274 72.4479 275.308C74.7058 276.458 76.5416 278.294 77.6921 280.552C79 283.119 79 286.479 79 293.2V318.8C79 325.521 79 328.881 77.6921 331.448C76.5416 333.706 74.7058 335.542 72.4479 336.692C69.8809 338 66.5206 338 59.8 338H10.2C3.47937 338 0.119055 338 -2.44789 336.692C-4.70583 335.542 -6.5416 333.706 -7.69208 331.448C-9 328.881 -9 325.521 -9 318.8V293.2Z" fill="#d2cefe"/>
<path d="M191 293.2C191 286.479 191 283.119 192.308 280.552C193.458 278.294 195.294 276.458 197.552 275.308C200.119 274 203.479 274 210.2 274H259.8C266.521 274 269.881 274 272.448 275.308C274.706 276.458 276.542 278.294 277.692 280.552C279 283.119 279 286.479 279 293.2V318.8C279 325.521 279 328.881 277.692 331.448C276.542 333.706 274.706 335.542 272.448 336.692C269.881 338 266.521 338 259.8 338H210.2C203.479 338 200.119 338 197.552 336.692C195.294 335.542 193.458 333.706 192.308 331.448C191 328.881 191 325.521 191 318.8V293.2Z" fill="#d2cefe"/>
<path d="M391 141.2C391 134.479 391 131.119 392.308 128.552C393.458 126.294 395.294 124.458 397.552 123.308C400.119 122 403.479 122 410.2 122H459.8C466.521 122 469.881 122 472.448 123.308C474.706 124.458 476.542 126.294 477.692 128.552C479 131.119 479 134.479 479 141.2V166.8C479 173.521 479 176.881 477.692 179.448C476.542 181.706 474.706 183.542 472.448 184.692C469.881 186 466.521 186 459.8 186H410.2C403.479 186 400.119 186 397.552 184.692C395.294 183.542 393.458 181.706 392.308 179.448C391 176.881 391 173.521 391 166.8V141.2Z" fill="#d2cefe"/>
<path d="M391 217.2C391 210.479 391 207.119 392.308 204.552C393.458 202.294 395.294 200.458 397.552 199.308C400.119 198 403.479 198 410.2 198H459.8C466.521 198 469.881 198 472.448 199.308C474.706 200.458 476.542 202.294 477.692 204.552C479 207.119 479 210.479 479 217.2V242.8C479 249.521 479 252.881 477.692 255.448C476.542 257.706 474.706 259.542 472.448 260.692C469.881 262 466.521 262 459.8 262H410.2C403.479 262 400.119 262 397.552 260.692C395.294 259.542 393.458 257.706 392.308 255.448C391 252.881 391 249.521 391 242.8V217.2Z" fill="#d2cefe"/>
<path d="M391 293.2C391 286.479 391 283.119 392.308 280.552C393.458 278.294 395.294 276.458 397.552 275.308C400.119 274 403.479 274 410.2 274H459.8C466.521 274 469.881 274 472.448 275.308C474.706 276.458 476.542 278.294 477.692 280.552C479 283.119 479 286.479 479 293.2V318.8C479 325.521 479 328.881 477.692 331.448C476.542 333.706 474.706 335.542 472.448 336.692C469.881 338 466.521 338 459.8 338H410.2C403.479 338 400.119 338 397.552 336.692C395.294 335.542 393.458 333.706 392.308 331.448C391 328.881 391 325.521 391 318.8V293.2Z" fill="#d2cefe"/>
<path d="M91 257.2C91 250.479 91 247.119 92.3079 244.552C93.4584 242.294 95.2942 240.458 97.5521 239.308C100.119 238 103.479 238 110.2 238H159.8C166.521 238 169.881 238 172.448 239.308C174.706 240.458 176.542 242.294 177.692 244.552C179 247.119 179 250.479 179 257.2V282.8C179 289.521 179 292.881 177.692 295.448C176.542 297.706 174.706 299.542 172.448 300.692C169.881 302 166.521 302 159.8 302H110.2C103.479 302 100.119 302 97.5521 300.692C95.2942 299.542 93.4584 297.706 92.3079 295.448C91 292.881 91 289.521 91 282.8V257.2Z" fill="#d2cefe"/>
<path d="M291 257.2C291 250.479 291 247.119 292.308 244.552C293.458 242.294 295.294 240.458 297.552 239.308C300.119 238 303.479 238 310.2 238H359.8C366.521 238 369.881 238 372.448 239.308C374.706 240.458 376.542 242.294 377.692 244.552C379 247.119 379 250.479 379 257.2V282.8C379 289.521 379 292.881 377.692 295.448C376.542 297.706 374.706 299.542 372.448 300.692C369.881 302 366.521 302 359.8 302H310.2C303.479 302 300.119 302 297.552 300.692C295.294 299.542 293.458 297.706 292.308 295.448C291 292.881 291 289.521 291 282.8V257.2Z" fill="#d2cefe"/>
<path d="M91 333.2C91 326.479 91 323.119 92.3079 320.552C93.4584 318.294 95.2942 316.458 97.5521 315.308C100.119 314 103.479 314 110.2 314H159.8C166.521 314 169.881 314 172.448 315.308C174.706 316.458 176.542 318.294 177.692 320.552C179 323.119 179 326.479 179 333.2V358.8C179 365.521 179 368.881 177.692 371.448C176.542 373.706 174.706 375.542 172.448 376.692C169.881 378 166.521 378 159.8 378H110.2C103.479 378 100.119 378 97.5521 376.692C95.2942 375.542 93.4584 373.706 92.3079 371.448C91 368.881 91 365.521 91 358.8V333.2Z" fill="#d2cefe"/>
<path d="M291 333.2C291 326.479 291 323.119 292.308 320.552C293.458 318.294 295.294 316.458 297.552 315.308C300.119 314 303.479 314 310.2 314H359.8C366.521 314 369.881 314 372.448 315.308C374.706 316.458 376.542 318.294 377.692 320.552C379 323.119 379 326.479 379 333.2V358.8C379 365.521 379 368.881 377.692 371.448C376.542 373.706 374.706 375.542 372.448 376.692C369.881 378 366.521 378 359.8 378H310.2C303.479 378 300.119 378 297.552 376.692C295.294 375.542 293.458 373.706 292.308 371.448C291 368.881 291 365.521 291 358.8V333.2Z" fill="#d2cefe"/>
<path d="M-9 -84.8C-9 -91.5206 -9 -94.8809 -7.69208 -97.4479C-6.5416 -99.7058 -4.70583 -101.542 -2.44789 -102.692C0.119055 -104 3.47937 -104 10.2 -104H59.8C66.5206 -104 69.8809 -104 72.4479 -102.692C74.7058 -101.542 76.5416 -99.7058 77.6921 -97.4479C79 -94.8809 79 -91.5206 79 -84.8V-59.2C79 -52.4794 79 -49.1191 77.6921 -46.5521C76.5416 -44.2942 74.7058 -42.4584 72.4479 -41.3079C69.8809 -40 66.5206 -40 59.8 -40H10.2C3.47937 -40 0.119055 -40 -2.44789 -41.3079C-4.70583 -42.4584 -6.5416 -44.2942 -7.69208 -46.5521C-9 -49.1191 -9 -52.4794 -9 -59.2V-84.8Z" fill="#d2cefe"/>
<path d="M191 -84.8C191 -91.5206 191 -94.8809 192.308 -97.4479C193.458 -99.7058 195.294 -101.542 197.552 -102.692C200.119 -104 203.479 -104 210.2 -104H259.8C266.521 -104 269.881 -104 272.448 -102.692C274.706 -101.542 276.542 -99.7058 277.692 -97.4479C279 -94.8809 279 -91.5206 279 -84.8V-59.2C279 -52.4794 279 -49.1191 277.692 -46.5521C276.542 -44.2942 274.706 -42.4584 272.448 -41.3079C269.881 -40 266.521 -40 259.8 -40H210.2C203.479 -40 200.119 -40 197.552 -41.3079C195.294 -42.4584 193.458 -44.2942 192.308 -46.5521C191 -49.1191 191 -52.4794 191 -59.2V-84.8Z" fill="#d2cefe"/>
<path d="M-9 -8.8C-9 -15.5206 -9 -18.8809 -7.69208 -21.4479C-6.5416 -23.7058 -4.70583 -25.5416 -2.44789 -26.6921C0.119055 -28 3.47937 -28 10.2 -28H59.8C66.5206 -28 69.8809 -28 72.4479 -26.6921C74.7058 -25.5416 76.5416 -23.7058 77.6921 -21.4479C79 -18.8809 79 -15.5206 79 -8.8V16.8C79 23.5206 79 26.881 77.6921 29.4479C76.5416 31.7058 74.7058 33.5416 72.4479 34.6921C69.8809 36 66.5206 36 59.8 36H10.2C3.47937 36 0.119055 36 -2.44789 34.6921C-4.70583 33.5416 -6.5416 31.7058 -7.69208 29.4479C-9 26.881 -9 23.5206 -9 16.8V-8.8Z" fill="#d2cefe"/>
<path d="M191 -8.8C191 -15.5206 191 -18.8809 192.308 -21.4479C193.458 -23.7058 195.294 -25.5416 197.552 -26.6921C200.119 -28 203.479 -28 210.2 -28H259.8C266.521 -28 269.881 -28 272.448 -26.6921C274.706 -25.5416 276.542 -23.7058 277.692 -21.4479C279 -18.8809 279 -15.5206 279 -8.8V16.8C279 23.5206 279 26.881 277.692 29.4479C276.542 31.7058 274.706 33.5416 272.448 34.6921C269.881 36 266.521 36 259.8 36H210.2C203.479 36 200.119 36 197.552 34.6921C195.294 33.5416 193.458 31.7058 192.308 29.4479C191 26.881 191 23.5206 191 16.8V-8.8Z" fill="#d2cefe"/>
<path d="M91 -44.8C91 -51.5206 91 -54.8809 92.3079 -57.4479C93.4584 -59.7058 95.2942 -61.5416 97.5521 -62.6921C100.119 -64 103.479 -64 110.2 -64H159.8C166.521 -64 169.881 -64 172.448 -62.6921C174.706 -61.5416 176.542 -59.7058 177.692 -57.4479C179 -54.8809 179 -51.5206 179 -44.8V-19.2C179 -12.4794 179 -9.11905 177.692 -6.55211C176.542 -4.29417 174.706 -2.4584 172.448 -1.30792C169.881 0 166.521 0 159.8 0H110.2C103.479 0 100.119 0 97.5521 -1.30792C95.2942 -2.4584 93.4584 -4.29417 92.3079 -6.55211C91 -9.11905 91 -12.4794 91 -19.2V-44.8Z" fill="#d2cefe"/>
<path d="M291 -44.8C291 -51.5206 291 -54.8809 292.308 -57.4479C293.458 -59.7058 295.294 -61.5416 297.552 -62.6921C300.119 -64 303.479 -64 310.2 -64H359.8C366.521 -64 369.881 -64 372.448 -62.6921C374.706 -61.5416 376.542 -59.7058 377.692 -57.4479C379 -54.8809 379 -51.5206 379 -44.8V-19.2C379 -12.4794 379 -9.11905 377.692 -6.55211C376.542 -4.29417 374.706 -2.4584 372.448 -1.30792C369.881 0 366.521 0 359.8 0H310.2C303.479 0 300.119 0 297.552 -1.30792C295.294 -2.4584 293.458 -4.29417 292.308 -6.55211C291 -9.11905 291 -12.4794 291 -19.2V-44.8Z" fill="#d2cefe"/>
<path d="M-9 67.2C-9 60.4794 -9 57.119 -7.69208 54.5521C-6.5416 52.2942 -4.70583 50.4584 -2.44789 49.3079C0.119055 48 3.47937 48 10.2 48H59.8C66.5206 48 69.8809 48 72.4479 49.3079C74.7058 50.4584 76.5416 52.2942 77.6921 54.5521C79 57.119 79 60.4794 79 67.2V92.8C79 99.5206 79 102.881 77.6921 105.448C76.5416 107.706 74.7058 109.542 72.4479 110.692C69.8809 112 66.5206 112 59.8 112H10.2C3.47937 112 0.119055 112 -2.44789 110.692C-4.70583 109.542 -6.5416 107.706 -7.69208 105.448C-9 102.881 -9 99.5206 -9 92.8V67.2Z" fill="#d2cefe"/>
<path d="M191 67.2C191 60.4794 191 57.119 192.308 54.5521C193.458 52.2942 195.294 50.4584 197.552 49.3079C200.119 48 203.479 48 210.2 48H259.8C266.521 48 269.881 48 272.448 49.3079C274.706 50.4584 276.542 52.2942 277.692 54.5521C279 57.119 279 60.4794 279 67.2V92.8C279 99.5206 279 102.881 277.692 105.448C276.542 107.706 274.706 109.542 272.448 110.692C269.881 112 266.521 112 259.8 112H210.2C203.479 112 200.119 112 197.552 110.692C195.294 109.542 193.458 107.706 192.308 105.448C191 102.881 191 99.5206 191 92.8V67.2Z" fill="#d2cefe"/>
<path d="M391 -84.8C391 -91.5206 391 -94.8809 392.308 -97.4479C393.458 -99.7058 395.294 -101.542 397.552 -102.692C400.119 -104 403.479 -104 410.2 -104H459.8C466.521 -104 469.881 -104 472.448 -102.692C474.706 -101.542 476.542 -99.7058 477.692 -97.4479C479 -94.8809 479 -91.5206 479 -84.8V-59.2C479 -52.4794 479 -49.1191 477.692 -46.5521C476.542 -44.2942 474.706 -42.4584 472.448 -41.3079C469.881 -40 466.521 -40 459.8 -40H410.2C403.479 -40 400.119 -40 397.552 -41.3079C395.294 -42.4584 393.458 -44.2942 392.308 -46.5521C391 -49.1191 391 -52.4794 391 -59.2V-84.8Z" fill="#d2cefe"/>
<path d="M391 -8.8C391 -15.5206 391 -18.8809 392.308 -21.4479C393.458 -23.7058 395.294 -25.5416 397.552 -26.6921C400.119 -28 403.479 -28 410.2 -28H459.8C466.521 -28 469.881 -28 472.448 -26.6921C474.706 -25.5416 476.542 -23.7058 477.692 -21.4479C479 -18.8809 479 -15.5206 479 -8.8V16.8C479 23.5206 479 26.881 477.692 29.4479C476.542 31.7058 474.706 33.5416 472.448 34.6921C469.881 36 466.521 36 459.8 36H410.2C403.479 36 400.119 36 397.552 34.6921C395.294 33.5416 393.458 31.7058 392.308 29.4479C391 26.881 391 23.5206 391 16.8V-8.8Z" fill="#d2cefe"/>
<path d="M391 67.2C391 60.4794 391 57.119 392.308 54.5521C393.458 52.2942 395.294 50.4584 397.552 49.3079C400.119 48 403.479 48 410.2 48H459.8C466.521 48 469.881 48 472.448 49.3079C474.706 50.4584 476.542 52.2942 477.692 54.5521C479 57.119 479 60.4794 479 67.2V92.8C479 99.5206 479 102.881 477.692 105.448C476.542 107.706 474.706 109.542 472.448 110.692C469.881 112 466.521 112 459.8 112H410.2C403.479 112 400.119 112 397.552 110.692C395.294 109.542 393.458 107.706 392.308 105.448C391 102.881 391 99.5206 391 92.8V67.2Z" fill="#d2cefe"/>
<path d="M91 31.2C91 24.4794 91 21.119 92.3079 18.5521C93.4584 16.2942 95.2942 14.4584 97.5521 13.3079C100.119 12 103.479 12 110.2 12H159.8C166.521 12 169.881 12 172.448 13.3079C174.706 14.4584 176.542 16.2942 177.692 18.5521C179 21.119 179 24.4794 179 31.2V56.8C179 63.5206 179 66.881 177.692 69.4479C176.542 71.7058 174.706 73.5416 172.448 74.6921C169.881 76 166.521 76 159.8 76H110.2C103.479 76 100.119 76 97.5521 74.6921C95.2942 73.5416 93.4584 71.7058 92.3079 69.4479C91 66.881 91 63.5206 91 56.8V31.2Z" fill="#d2cefe"/>
<path d="M291 31.2C291 24.4794 291 21.119 292.308 18.5521C293.458 16.2942 295.294 14.4584 297.552 13.3079C300.119 12 303.479 12 310.2 12H359.8C366.521 12 369.881 12 372.448 13.3079C374.706 14.4584 376.542 16.2942 377.692 18.5521C379 21.119 379 24.4794 379 31.2V56.8C379 63.5206 379 66.881 377.692 69.4479C376.542 71.7058 374.706 73.5416 372.448 74.6921C369.881 76 366.521 76 359.8 76H310.2C303.479 76 300.119 76 297.552 74.6921C295.294 73.5416 293.458 71.7058 292.308 69.4479C291 66.881 291 63.5206 291 56.8V31.2Z" fill="#d2cefe"/>
<path d="M91 107.2C91 100.479 91 97.119 92.3079 94.5521C93.4584 92.2942 95.2942 90.4584 97.5521 89.3079C100.119 88 103.479 88 110.2 88H159.8C166.521 88 169.881 88 172.448 89.3079C174.706 90.4584 176.542 92.2942 177.692 94.5521C179 97.119 179 100.479 179 107.2V132.8C179 139.521 179 142.881 177.692 145.448C176.542 147.706 174.706 149.542 172.448 150.692C169.881 152 166.521 152 159.8 152H110.2C103.479 152 100.119 152 97.5521 150.692C95.2942 149.542 93.4584 147.706 92.3079 145.448C91 142.881 91 139.521 91 132.8V107.2Z" fill="#d2cefe"/>
<path d="M291 107.2C291 100.479 291 97.119 292.308 94.5521C293.458 92.2942 295.294 90.4584 297.552 89.3079C300.119 88 303.479 88 310.2 88H359.8C366.521 88 369.881 88 372.448 89.3079C374.706 90.4584 376.542 92.2942 377.692 94.5521C379 97.119 379 100.479 379 107.2V132.8C379 139.521 379 142.881 377.692 145.448C376.542 147.706 374.706 149.542 372.448 150.692C369.881 152 366.521 152 359.8 152H310.2C303.479 152 300.119 152 297.552 150.692C295.294 149.542 293.458 147.706 292.308 145.448C291 142.881 291 139.521 291 132.8V107.2Z" fill="#d2cefe"/>
<path d="M-9 1733.2C-9 1726.48 -9 1723.12 -7.69208 1720.55C-6.5416 1718.29 -4.70583 1716.46 -2.44789 1715.31C0.119055 1714 3.47937 1714 10.2 1714H59.8C66.5206 1714 69.8809 1714 72.4479 1715.31C74.7058 1716.46 76.5416 1718.29 77.6921 1720.55C79 1723.12 79 1726.48 79 1733.2V1758.8C79 1765.52 79 1768.88 77.6921 1771.45C76.5416 1773.71 74.7058 1775.54 72.4479 1776.69C69.8809 1778 66.5206 1778 59.8 1778H10.2C3.47937 1778 0.119055 1778 -2.44789 1776.69C-4.70583 1775.54 -6.5416 1773.71 -7.69208 1771.45C-9 1768.88 -9 1765.52 -9 1758.8V1733.2Z" fill="#d2cefe"/>
<path d="M191 1733.2C191 1726.48 191 1723.12 192.308 1720.55C193.458 1718.29 195.294 1716.46 197.552 1715.31C200.119 1714 203.479 1714 210.2 1714H259.8C266.521 1714 269.881 1714 272.448 1715.31C274.706 1716.46 276.542 1718.29 277.692 1720.55C279 1723.12 279 1726.48 279 1733.2V1758.8C279 1765.52 279 1768.88 277.692 1771.45C276.542 1773.71 274.706 1775.54 272.448 1776.69C269.881 1778 266.521 1778 259.8 1778H210.2C203.479 1778 200.119 1778 197.552 1776.69C195.294 1775.54 193.458 1773.71 192.308 1771.45C191 1768.88 191 1765.52 191 1758.8V1733.2Z" fill="#d2cefe"/>
<path d="M91 1697.2C91 1690.48 91 1687.12 92.3079 1684.55C93.4584 1682.29 95.2942 1680.46 97.5521 1679.31C100.119 1678 103.479 1678 110.2 1678H159.8C166.521 1678 169.881 1678 172.448 1679.31C174.706 1680.46 176.542 1682.29 177.692 1684.55C179 1687.12 179 1690.48 179 1697.2V1722.8C179 1729.52 179 1732.88 177.692 1735.45C176.542 1737.71 174.706 1739.54 172.448 1740.69C169.881 1742 166.521 1742 159.8 1742H110.2C103.479 1742 100.119 1742 97.5521 1740.69C95.2942 1739.54 93.4584 1737.71 92.3079 1735.45C91 1732.88 91 1729.52 91 1722.8V1697.2Z" fill="#d2cefe"/>
<path d="M291 1697.2C291 1690.48 291 1687.12 292.308 1684.55C293.458 1682.29 295.294 1680.46 297.552 1679.31C300.119 1678 303.479 1678 310.2 1678H359.8C366.521 1678 369.881 1678 372.448 1679.31C374.706 1680.46 376.542 1682.29 377.692 1684.55C379 1687.12 379 1690.48 379 1697.2V1722.8C379 1729.52 379 1732.88 377.692 1735.45C376.542 1737.71 374.706 1739.54 372.448 1740.69C369.881 1742 366.521 1742 359.8 1742H310.2C303.479 1742 300.119 1742 297.552 1740.69C295.294 1739.54 293.458 1737.71 292.308 1735.45C291 1732.88 291 1729.52 291 1722.8V1697.2Z" fill="#d2cefe"/>
<path d="M-9 1809.2C-9 1802.48 -9 1799.12 -7.69208 1796.55C-6.5416 1794.29 -4.70583 1792.46 -2.44789 1791.31C0.119055 1790 3.47937 1790 10.2 1790H59.8C66.5206 1790 69.8809 1790 72.4479 1791.31C74.7058 1792.46 76.5416 1794.29 77.6921 1796.55C79 1799.12 79 1802.48 79 1809.2V1834.8C79 1841.52 79 1844.88 77.6921 1847.45C76.5416 1849.71 74.7058 1851.54 72.4479 1852.69C69.8809 1854 66.5206 1854 59.8 1854H10.2C3.47937 1854 0.119055 1854 -2.44789 1852.69C-4.70583 1851.54 -6.5416 1849.71 -7.69208 1847.45C-9 1844.88 -9 1841.52 -9 1834.8V1809.2Z" fill="#d2cefe"/>
<path d="M191 1809.2C191 1802.48 191 1799.12 192.308 1796.55C193.458 1794.29 195.294 1792.46 197.552 1791.31C200.119 1790 203.479 1790 210.2 1790H259.8C266.521 1790 269.881 1790 272.448 1791.31C274.706 1792.46 276.542 1794.29 277.692 1796.55C279 1799.12 279 1802.48 279 1809.2V1834.8C279 1841.52 279 1844.88 277.692 1847.45C276.542 1849.71 274.706 1851.54 272.448 1852.69C269.881 1854 266.521 1854 259.8 1854H210.2C203.479 1854 200.119 1854 197.552 1852.69C195.294 1851.54 193.458 1849.71 192.308 1847.45C191 1844.88 191 1841.52 191 1834.8V1809.2Z" fill="#d2cefe"/>
<path d="M91 1773.2C91 1766.48 91 1763.12 92.3079 1760.55C93.4584 1758.29 95.2942 1756.46 97.5521 1755.31C100.119 1754 103.479 1754 110.2 1754H159.8C166.521 1754 169.881 1754 172.448 1755.31C174.706 1756.46 176.542 1758.29 177.692 1760.55C179 1763.12 179 1766.48 179 1773.2V1798.8C179 1805.52 179 1808.88 177.692 1811.45C176.542 1813.71 174.706 1815.54 172.448 1816.69C169.881 1818 166.521 1818 159.8 1818H110.2C103.479 1818 100.119 1818 97.5521 1816.69C95.2942 1815.54 93.4584 1813.71 92.3079 1811.45C91 1808.88 91 1805.52 91 1798.8V1773.2Z" fill="#d2cefe"/>
<path d="M291 1773.2C291 1766.48 291 1763.12 292.308 1760.55C293.458 1758.29 295.294 1756.46 297.552 1755.31C300.119 1754 303.479 1754 310.2 1754H359.8C366.521 1754 369.881 1754 372.448 1755.31C374.706 1756.46 376.542 1758.29 377.692 1760.55C379 1763.12 379 1766.48 379 1773.2V1798.8C379 1805.52 379 1808.88 377.692 1811.45C376.542 1813.71 374.706 1815.54 372.448 1816.69C369.881 1818 366.521 1818 359.8 1818H310.2C303.479 1818 300.119 1818 297.552 1816.69C295.294 1815.54 293.458 1813.71 292.308 1811.45C291 1808.88 291 1805.52 291 1798.8V1773.2Z" fill="#d2cefe"/>
<path d="M-9 1885.2C-9 1878.48 -9 1875.12 -7.69208 1872.55C-6.5416 1870.29 -4.70583 1868.46 -2.44789 1867.31C0.119055 1866 3.47937 1866 10.2 1866H59.8C66.5206 1866 69.8809 1866 72.4479 1867.31C74.7058 1868.46 76.5416 1870.29 77.6921 1872.55C79 1875.12 79 1878.48 79 1885.2V1910.8C79 1917.52 79 1920.88 77.6921 1923.45C76.5416 1925.71 74.7058 1927.54 72.4479 1928.69C69.8809 1930 66.5206 1930 59.8 1930H10.2C3.47937 1930 0.119055 1930 -2.44789 1928.69C-4.70583 1927.54 -6.5416 1925.71 -7.69208 1923.45C-9 1920.88 -9 1917.52 -9 1910.8V1885.2Z" fill="#d2cefe"/>
<path d="M191 1885.2C191 1878.48 191 1875.12 192.308 1872.55C193.458 1870.29 195.294 1868.46 197.552 1867.31C200.119 1866 203.479 1866 210.2 1866H259.8C266.521 1866 269.881 1866 272.448 1867.31C274.706 1868.46 276.542 1870.29 277.692 1872.55C279 1875.12 279 1878.48 279 1885.2V1910.8C279 1917.52 279 1920.88 277.692 1923.45C276.542 1925.71 274.706 1927.54 272.448 1928.69C269.881 1930 266.521 1930 259.8 1930H210.2C203.479 1930 200.119 1930 197.552 1928.69C195.294 1927.54 193.458 1925.71 192.308 1923.45C191 1920.88 191 1917.52 191 1910.8V1885.2Z" fill="#d2cefe"/>
<path d="M391 1733.2C391 1726.48 391 1723.12 392.308 1720.55C393.458 1718.29 395.294 1716.46 397.552 1715.31C400.119 1714 403.479 1714 410.2 1714H459.8C466.521 1714 469.881 1714 472.448 1715.31C474.706 1716.46 476.542 1718.29 477.692 1720.55C479 1723.12 479 1726.48 479 1733.2V1758.8C479 1765.52 479 1768.88 477.692 1771.45C476.542 1773.71 474.706 1775.54 472.448 1776.69C469.881 1778 466.521 1778 459.8 1778H410.2C403.479 1778 400.119 1778 397.552 1776.69C395.294 1775.54 393.458 1773.71 392.308 1771.45C391 1768.88 391 1765.52 391 1758.8V1733.2Z" fill="#d2cefe"/>
<path d="M391 1809.2C391 1802.48 391 1799.12 392.308 1796.55C393.458 1794.29 395.294 1792.46 397.552 1791.31C400.119 1790 403.479 1790 410.2 1790H459.8C466.521 1790 469.881 1790 472.448 1791.31C474.706 1792.46 476.542 1794.29 477.692 1796.55C479 1799.12 479 1802.48 479 1809.2V1834.8C479 1841.52 479 1844.88 477.692 1847.45C476.542 1849.71 474.706 1851.54 472.448 1852.69C469.881 1854 466.521 1854 459.8 1854H410.2C403.479 1854 400.119 1854 397.552 1852.69C395.294 1851.54 393.458 1849.71 392.308 1847.45C391 1844.88 391 1841.52 391 1834.8V1809.2Z" fill="#d2cefe"/>
<path d="M391 1885.2C391 1878.48 391 1875.12 392.308 1872.55C393.458 1870.29 395.294 1868.46 397.552 1867.31C400.119 1866 403.479 1866 410.2 1866H459.8C466.521 1866 469.881 1866 472.448 1867.31C474.706 1868.46 476.542 1870.29 477.692 1872.55C479 1875.12 479 1878.48 479 1885.2V1910.8C479 1917.52 479 1920.88 477.692 1923.45C476.542 1925.71 474.706 1927.54 472.448 1928.69C469.881 1930 466.521 1930 459.8 1930H410.2C403.479 1930 400.119 1930 397.552 1928.69C395.294 1927.54 393.458 1925.71 392.308 1923.45C391 1920.88 391 1917.52 391 1910.8V1885.2Z" fill="#d2cefe"/>
<path d="M91 1849.2C91 1842.48 91 1839.12 92.3079 1836.55C93.4584 1834.29 95.2942 1832.46 97.5521 1831.31C100.119 1830 103.479 1830 110.2 1830H159.8C166.521 1830 169.881 1830 172.448 1831.31C174.706 1832.46 176.542 1834.29 177.692 1836.55C179 1839.12 179 1842.48 179 1849.2V1874.8C179 1881.52 179 1884.88 177.692 1887.45C176.542 1889.71 174.706 1891.54 172.448 1892.69C169.881 1894 166.521 1894 159.8 1894H110.2C103.479 1894 100.119 1894 97.5521 1892.69C95.2942 1891.54 93.4584 1889.71 92.3079 1887.45C91 1884.88 91 1881.52 91 1874.8V1849.2Z" fill="#d2cefe"/>
<path d="M291 1849.2C291 1842.48 291 1839.12 292.308 1836.55C293.458 1834.29 295.294 1832.46 297.552 1831.31C300.119 1830 303.479 1830 310.2 1830H359.8C366.521 1830 369.881 1830 372.448 1831.31C374.706 1832.46 376.542 1834.29 377.692 1836.55C379 1839.12 379 1842.48 379 1849.2V1874.8C379 1881.52 379 1884.88 377.692 1887.45C376.542 1889.71 374.706 1891.54 372.448 1892.69C369.881 1894 366.521 1894 359.8 1894H310.2C303.479 1894 300.119 1894 297.552 1892.69C295.294 1891.54 293.458 1889.71 292.308 1887.45C291 1884.88 291 1881.52 291 1874.8V1849.2Z" fill="#d2cefe"/>
<path d="M91 1925.2C91 1918.48 91 1915.12 92.3079 1912.55C93.4584 1910.29 95.2942 1908.46 97.5521 1907.31C100.119 1906 103.479 1906 110.2 1906H159.8C166.521 1906 169.881 1906 172.448 1907.31C174.706 1908.46 176.542 1910.29 177.692 1912.55C179 1915.12 179 1918.48 179 1925.2V1950.8C179 1957.52 179 1960.88 177.692 1963.45C176.542 1965.71 174.706 1967.54 172.448 1968.69C169.881 1970 166.521 1970 159.8 1970H110.2C103.479 1970 100.119 1970 97.5521 1968.69C95.2942 1967.54 93.4584 1965.71 92.3079 1963.45C91 1960.88 91 1957.52 91 1950.8V1925.2Z" fill="#d2cefe"/>
<path d="M291 1925.2C291 1918.48 291 1915.12 292.308 1912.55C293.458 1910.29 295.294 1908.46 297.552 1907.31C300.119 1906 303.479 1906 310.2 1906H359.8C366.521 1906 369.881 1906 372.448 1907.31C374.706 1908.46 376.542 1910.29 377.692 1912.55C379 1915.12 379 1918.48 379 1925.2V1950.8C379 1957.52 379 1960.88 377.692 1963.45C376.542 1965.71 374.706 1967.54 372.448 1968.69C369.881 1970 366.521 1970 359.8 1970H310.2C303.479 1970 300.119 1970 297.552 1968.69C295.294 1967.54 293.458 1965.71 292.308 1963.45C291 1960.88 291 1957.52 291 1950.8V1925.2Z" fill="#d2cefe"/>
<path d="M-9 1961.2C-9 1954.48 -9 1951.12 -7.69208 1948.55C-6.5416 1946.29 -4.70583 1944.46 -2.44789 1943.31C0.119055 1942 3.47937 1942 10.2 1942H59.8C66.5206 1942 69.8809 1942 72.4479 1943.31C74.7058 1944.46 76.5416 1946.29 77.6921 1948.55C79 1951.12 79 1954.48 79 1961.2V1986.8C79 1993.52 79 1996.88 77.6921 1999.45C76.5416 2001.71 74.7058 2003.54 72.4479 2004.69C69.8809 2006 66.5206 2006 59.8 2006H10.2C3.47937 2006 0.119055 2006 -2.44789 2004.69C-4.70583 2003.54 -6.5416 2001.71 -7.69208 1999.45C-9 1996.88 -9 1993.52 -9 1986.8V1961.2Z" fill="#d2cefe"/>
<path d="M191 1961.2C191 1954.48 191 1951.12 192.308 1948.55C193.458 1946.29 195.294 1944.46 197.552 1943.31C200.119 1942 203.479 1942 210.2 1942H259.8C266.521 1942 269.881 1942 272.448 1943.31C274.706 1944.46 276.542 1946.29 277.692 1948.55C279 1951.12 279 1954.48 279 1961.2V1986.8C279 1993.52 279 1996.88 277.692 1999.45C276.542 2001.71 274.706 2003.54 272.448 2004.69C269.881 2006 266.521 2006 259.8 2006H210.2C203.479 2006 200.119 2006 197.552 2004.69C195.294 2003.54 193.458 2001.71 192.308 1999.45C191 1996.88 191 1993.52 191 1986.8V1961.2Z" fill="#d2cefe"/>
<path d="M-9 2037.2C-9 2030.48 -9 2027.12 -7.69208 2024.55C-6.5416 2022.29 -4.70583 2020.46 -2.44789 2019.31C0.119055 2018 3.47937 2018 10.2 2018H59.8C66.5206 2018 69.8809 2018 72.4479 2019.31C74.7058 2020.46 76.5416 2022.29 77.6921 2024.55C79 2027.12 79 2030.48 79 2037.2V2062.8C79 2069.52 79 2072.88 77.6921 2075.45C76.5416 2077.71 74.7058 2079.54 72.4479 2080.69C69.8809 2082 66.5206 2082 59.8 2082H10.2C3.47937 2082 0.119055 2082 -2.44789 2080.69C-4.70583 2079.54 -6.5416 2077.71 -7.69208 2075.45C-9 2072.88 -9 2069.52 -9 2062.8V2037.2Z" fill="#d2cefe"/>
<path d="M191 2037.2C191 2030.48 191 2027.12 192.308 2024.55C193.458 2022.29 195.294 2020.46 197.552 2019.31C200.119 2018 203.479 2018 210.2 2018H259.8C266.521 2018 269.881 2018 272.448 2019.31C274.706 2020.46 276.542 2022.29 277.692 2024.55C279 2027.12 279 2030.48 279 2037.2V2062.8C279 2069.52 279 2072.88 277.692 2075.45C276.542 2077.71 274.706 2079.54 272.448 2080.69C269.881 2082 266.521 2082 259.8 2082H210.2C203.479 2082 200.119 2082 197.552 2080.69C195.294 2079.54 193.458 2077.71 192.308 2075.45C191 2072.88 191 2069.52 191 2062.8V2037.2Z" fill="#d2cefe"/>
<path d="M91 2001.2C91 1994.48 91 1991.12 92.3079 1988.55C93.4584 1986.29 95.2942 1984.46 97.5521 1983.31C100.119 1982 103.479 1982 110.2 1982H159.8C166.521 1982 169.881 1982 172.448 1983.31C174.706 1984.46 176.542 1986.29 177.692 1988.55C179 1991.12 179 1994.48 179 2001.2V2026.8C179 2033.52 179 2036.88 177.692 2039.45C176.542 2041.71 174.706 2043.54 172.448 2044.69C169.881 2046 166.521 2046 159.8 2046H110.2C103.479 2046 100.119 2046 97.5521 2044.69C95.2942 2043.54 93.4584 2041.71 92.3079 2039.45C91 2036.88 91 2033.52 91 2026.8V2001.2Z" fill="#d2cefe"/>
<path d="M291 2001.2C291 1994.48 291 1991.12 292.308 1988.55C293.458 1986.29 295.294 1984.46 297.552 1983.31C300.119 1982 303.479 1982 310.2 1982H359.8C366.521 1982 369.881 1982 372.448 1983.31C374.706 1984.46 376.542 1986.29 377.692 1988.55C379 1991.12 379 1994.48 379 2001.2V2026.8C379 2033.52 379 2036.88 377.692 2039.45C376.542 2041.71 374.706 2043.54 372.448 2044.69C369.881 2046 366.521 2046 359.8 2046H310.2C303.479 2046 300.119 2046 297.552 2044.69C295.294 2043.54 293.458 2041.71 292.308 2039.45C291 2036.88 291 2033.52 291 2026.8V2001.2Z" fill="#d2cefe"/>
<path d="M-9 2113.2C-9 2106.48 -9 2103.12 -7.69208 2100.55C-6.5416 2098.29 -4.70583 2096.46 -2.44789 2095.31C0.119055 2094 3.47937 2094 10.2 2094H59.8C66.5206 2094 69.8809 2094 72.4479 2095.31C74.7058 2096.46 76.5416 2098.29 77.6921 2100.55C79 2103.12 79 2106.48 79 2113.2V2138.8C79 2145.52 79 2148.88 77.6921 2151.45C76.5416 2153.71 74.7058 2155.54 72.4479 2156.69C69.8809 2158 66.5206 2158 59.8 2158H10.2C3.47937 2158 0.119055 2158 -2.44789 2156.69C-4.70583 2155.54 -6.5416 2153.71 -7.69208 2151.45C-9 2148.88 -9 2145.52 -9 2138.8V2113.2Z" fill="#d2cefe"/>
<path d="M191 2113.2C191 2106.48 191 2103.12 192.308 2100.55C193.458 2098.29 195.294 2096.46 197.552 2095.31C200.119 2094 203.479 2094 210.2 2094H259.8C266.521 2094 269.881 2094 272.448 2095.31C274.706 2096.46 276.542 2098.29 277.692 2100.55C279 2103.12 279 2106.48 279 2113.2V2138.8C279 2145.52 279 2148.88 277.692 2151.45C276.542 2153.71 274.706 2155.54 272.448 2156.69C269.881 2158 266.521 2158 259.8 2158H210.2C203.479 2158 200.119 2158 197.552 2156.69C195.294 2155.54 193.458 2153.71 192.308 2151.45C191 2148.88 191 2145.52 191 2138.8V2113.2Z" fill="#d2cefe"/>
<path d="M391 1961.2C391 1954.48 391 1951.12 392.308 1948.55C393.458 1946.29 395.294 1944.46 397.552 1943.31C400.119 1942 403.479 1942 410.2 1942H459.8C466.521 1942 469.881 1942 472.448 1943.31C474.706 1944.46 476.542 1946.29 477.692 1948.55C479 1951.12 479 1954.48 479 1961.2V1986.8C479 1993.52 479 1996.88 477.692 1999.45C476.542 2001.71 474.706 2003.54 472.448 2004.69C469.881 2006 466.521 2006 459.8 2006H410.2C403.479 2006 400.119 2006 397.552 2004.69C395.294 2003.54 393.458 2001.71 392.308 1999.45C391 1996.88 391 1993.52 391 1986.8V1961.2Z" fill="#d2cefe"/>
<path d="M391 2037.2C391 2030.48 391 2027.12 392.308 2024.55C393.458 2022.29 395.294 2020.46 397.552 2019.31C400.119 2018 403.479 2018 410.2 2018H459.8C466.521 2018 469.881 2018 472.448 2019.31C474.706 2020.46 476.542 2022.29 477.692 2024.55C479 2027.12 479 2030.48 479 2037.2V2062.8C479 2069.52 479 2072.88 477.692 2075.45C476.542 2077.71 474.706 2079.54 472.448 2080.69C469.881 2082 466.521 2082 459.8 2082H410.2C403.479 2082 400.119 2082 397.552 2080.69C395.294 2079.54 393.458 2077.71 392.308 2075.45C391 2072.88 391 2069.52 391 2062.8V2037.2Z" fill="#d2cefe"/>
<path d="M391 2113.2C391 2106.48 391 2103.12 392.308 2100.55C393.458 2098.29 395.294 2096.46 397.552 2095.31C400.119 2094 403.479 2094 410.2 2094H459.8C466.521 2094 469.881 2094 472.448 2095.31C474.706 2096.46 476.542 2098.29 477.692 2100.55C479 2103.12 479 2106.48 479 2113.2V2138.8C479 2145.52 479 2148.88 477.692 2151.45C476.542 2153.71 474.706 2155.54 472.448 2156.69C469.881 2158 466.521 2158 459.8 2158H410.2C403.479 2158 400.119 2158 397.552 2156.69C395.294 2155.54 393.458 2153.71 392.308 2151.45C391 2148.88 391 2145.52 391 2138.8V2113.2Z" fill="#d2cefe"/>
<path d="M91 2077.2C91 2070.48 91 2067.12 92.3079 2064.55C93.4584 2062.29 95.2942 2060.46 97.5521 2059.31C100.119 2058 103.479 2058 110.2 2058H159.8C166.521 2058 169.881 2058 172.448 2059.31C174.706 2060.46 176.542 2062.29 177.692 2064.55C179 2067.12 179 2070.48 179 2077.2V2102.8C179 2109.52 179 2112.88 177.692 2115.45C176.542 2117.71 174.706 2119.54 172.448 2120.69C169.881 2122 166.521 2122 159.8 2122H110.2C103.479 2122 100.119 2122 97.5521 2120.69C95.2942 2119.54 93.4584 2117.71 92.3079 2115.45C91 2112.88 91 2109.52 91 2102.8V2077.2Z" fill="#d2cefe"/>
<path d="M291 2077.2C291 2070.48 291 2067.12 292.308 2064.55C293.458 2062.29 295.294 2060.46 297.552 2059.31C300.119 2058 303.479 2058 310.2 2058H359.8C366.521 2058 369.881 2058 372.448 2059.31C374.706 2060.46 376.542 2062.29 377.692 2064.55C379 2067.12 379 2070.48 379 2077.2V2102.8C379 2109.52 379 2112.88 377.692 2115.45C376.542 2117.71 374.706 2119.54 372.448 2120.69C369.881 2122 366.521 2122 359.8 2122H310.2C303.479 2122 300.119 2122 297.552 2120.69C295.294 2119.54 293.458 2117.71 292.308 2115.45C291 2112.88 291 2109.52 291 2102.8V2077.2Z" fill="#d2cefe"/>
<path d="M91 2153.2C91 2146.48 91 2143.12 92.3079 2140.55C93.4584 2138.29 95.2942 2136.46 97.5521 2135.31C100.119 2134 103.479 2134 110.2 2134H159.8C166.521 2134 169.881 2134 172.448 2135.31C174.706 2136.46 176.542 2138.29 177.692 2140.55C179 2143.12 179 2146.48 179 2153.2V2178.8C179 2185.52 179 2188.88 177.692 2191.45C176.542 2193.71 174.706 2195.54 172.448 2196.69C169.881 2198 166.521 2198 159.8 2198H110.2C103.479 2198 100.119 2198 97.5521 2196.69C95.2942 2195.54 93.4584 2193.71 92.3079 2191.45C91 2188.88 91 2185.52 91 2178.8V2153.2Z" fill="#d2cefe"/>
<path d="M291 2153.2C291 2146.48 291 2143.12 292.308 2140.55C293.458 2138.29 295.294 2136.46 297.552 2135.31C300.119 2134 303.479 2134 310.2 2134H359.8C366.521 2134 369.881 2134 372.448 2135.31C374.706 2136.46 376.542 2138.29 377.692 2140.55C379 2143.12 379 2146.48 379 2153.2V2178.8C379 2185.52 379 2188.88 377.692 2191.45C376.542 2193.71 374.706 2195.54 372.448 2196.69C369.881 2198 366.521 2198 359.8 2198H310.2C303.479 2198 300.119 2198 297.552 2196.69C295.294 2195.54 293.458 2193.71 292.308 2191.45C291 2188.88 291 2185.52 291 2178.8V2153.2Z" fill="#d2cefe"/>
<path d="M-9 1505.2C-9 1498.48 -9 1495.12 -7.69208 1492.55C-6.5416 1490.29 -4.70583 1488.46 -2.44789 1487.31C0.119055 1486 3.47937 1486 10.2 1486H59.8C66.5206 1486 69.8809 1486 72.4479 1487.31C74.7058 1488.46 76.5416 1490.29 77.6921 1492.55C79 1495.12 79 1498.48 79 1505.2V1530.8C79 1537.52 79 1540.88 77.6921 1543.45C76.5416 1545.71 74.7058 1547.54 72.4479 1548.69C69.8809 1550 66.5206 1550 59.8 1550H10.2C3.47937 1550 0.119055 1550 -2.44789 1548.69C-4.70583 1547.54 -6.5416 1545.71 -7.69208 1543.45C-9 1540.88 -9 1537.52 -9 1530.8V1505.2Z" fill="#d2cefe"/>
<path d="M191 1505.2C191 1498.48 191 1495.12 192.308 1492.55C193.458 1490.29 195.294 1488.46 197.552 1487.31C200.119 1486 203.479 1486 210.2 1486H259.8C266.521 1486 269.881 1486 272.448 1487.31C274.706 1488.46 276.542 1490.29 277.692 1492.55C279 1495.12 279 1498.48 279 1505.2V1530.8C279 1537.52 279 1540.88 277.692 1543.45C276.542 1545.71 274.706 1547.54 272.448 1548.69C269.881 1550 266.521 1550 259.8 1550H210.2C203.479 1550 200.119 1550 197.552 1548.69C195.294 1547.54 193.458 1545.71 192.308 1543.45C191 1540.88 191 1537.52 191 1530.8V1505.2Z" fill="#d2cefe"/>
<path d="M-9 1581.2C-9 1574.48 -9 1571.12 -7.69208 1568.55C-6.5416 1566.29 -4.70583 1564.46 -2.44789 1563.31C0.119055 1562 3.47937 1562 10.2 1562H59.8C66.5206 1562 69.8809 1562 72.4479 1563.31C74.7058 1564.46 76.5416 1566.29 77.6921 1568.55C79 1571.12 79 1574.48 79 1581.2V1606.8C79 1613.52 79 1616.88 77.6921 1619.45C76.5416 1621.71 74.7058 1623.54 72.4479 1624.69C69.8809 1626 66.5206 1626 59.8 1626H10.2C3.47937 1626 0.119055 1626 -2.44789 1624.69C-4.70583 1623.54 -6.5416 1621.71 -7.69208 1619.45C-9 1616.88 -9 1613.52 -9 1606.8V1581.2Z" fill="#d2cefe"/>
<path d="M191 1581.2C191 1574.48 191 1571.12 192.308 1568.55C193.458 1566.29 195.294 1564.46 197.552 1563.31C200.119 1562 203.479 1562 210.2 1562H259.8C266.521 1562 269.881 1562 272.448 1563.31C274.706 1564.46 276.542 1566.29 277.692 1568.55C279 1571.12 279 1574.48 279 1581.2V1606.8C279 1613.52 279 1616.88 277.692 1619.45C276.542 1621.71 274.706 1623.54 272.448 1624.69C269.881 1626 266.521 1626 259.8 1626H210.2C203.479 1626 200.119 1626 197.552 1624.69C195.294 1623.54 193.458 1621.71 192.308 1619.45C191 1616.88 191 1613.52 191 1606.8V1581.2Z" fill="#d2cefe"/>
<path d="M91 1545.2C91 1538.48 91 1535.12 92.3079 1532.55C93.4584 1530.29 95.2942 1528.46 97.5521 1527.31C100.119 1526 103.479 1526 110.2 1526H159.8C166.521 1526 169.881 1526 172.448 1527.31C174.706 1528.46 176.542 1530.29 177.692 1532.55C179 1535.12 179 1538.48 179 1545.2V1570.8C179 1577.52 179 1580.88 177.692 1583.45C176.542 1585.71 174.706 1587.54 172.448 1588.69C169.881 1590 166.521 1590 159.8 1590H110.2C103.479 1590 100.119 1590 97.5521 1588.69C95.2942 1587.54 93.4584 1585.71 92.3079 1583.45C91 1580.88 91 1577.52 91 1570.8V1545.2Z" fill="#d2cefe"/>
<path d="M291 1545.2C291 1538.48 291 1535.12 292.308 1532.55C293.458 1530.29 295.294 1528.46 297.552 1527.31C300.119 1526 303.479 1526 310.2 1526H359.8C366.521 1526 369.881 1526 372.448 1527.31C374.706 1528.46 376.542 1530.29 377.692 1532.55C379 1535.12 379 1538.48 379 1545.2V1570.8C379 1577.52 379 1580.88 377.692 1583.45C376.542 1585.71 374.706 1587.54 372.448 1588.69C369.881 1590 366.521 1590 359.8 1590H310.2C303.479 1590 300.119 1590 297.552 1588.69C295.294 1587.54 293.458 1585.71 292.308 1583.45C291 1580.88 291 1577.52 291 1570.8V1545.2Z" fill="#d2cefe"/>
<path d="M-9 1657.2C-9 1650.48 -9 1647.12 -7.69208 1644.55C-6.5416 1642.29 -4.70583 1640.46 -2.44789 1639.31C0.119055 1638 3.47937 1638 10.2 1638H59.8C66.5206 1638 69.8809 1638 72.4479 1639.31C74.7058 1640.46 76.5416 1642.29 77.6921 1644.55C79 1647.12 79 1650.48 79 1657.2V1682.8C79 1689.52 79 1692.88 77.6921 1695.45C76.5416 1697.71 74.7058 1699.54 72.4479 1700.69C69.8809 1702 66.5206 1702 59.8 1702H10.2C3.47937 1702 0.119055 1702 -2.44789 1700.69C-4.70583 1699.54 -6.5416 1697.71 -7.69208 1695.45C-9 1692.88 -9 1689.52 -9 1682.8V1657.2Z" fill="#d2cefe"/>
<path d="M191 1657.2C191 1650.48 191 1647.12 192.308 1644.55C193.458 1642.29 195.294 1640.46 197.552 1639.31C200.119 1638 203.479 1638 210.2 1638H259.8C266.521 1638 269.881 1638 272.448 1639.31C274.706 1640.46 276.542 1642.29 277.692 1644.55C279 1647.12 279 1650.48 279 1657.2V1682.8C279 1689.52 279 1692.88 277.692 1695.45C276.542 1697.71 274.706 1699.54 272.448 1700.69C269.881 1702 266.521 1702 259.8 1702H210.2C203.479 1702 200.119 1702 197.552 1700.69C195.294 1699.54 193.458 1697.71 192.308 1695.45C191 1692.88 191 1689.52 191 1682.8V1657.2Z" fill="#d2cefe"/>
<path d="M391 1505.2C391 1498.48 391 1495.12 392.308 1492.55C393.458 1490.29 395.294 1488.46 397.552 1487.31C400.119 1486 403.479 1486 410.2 1486H459.8C466.521 1486 469.881 1486 472.448 1487.31C474.706 1488.46 476.542 1490.29 477.692 1492.55C479 1495.12 479 1498.48 479 1505.2V1530.8C479 1537.52 479 1540.88 477.692 1543.45C476.542 1545.71 474.706 1547.54 472.448 1548.69C469.881 1550 466.521 1550 459.8 1550H410.2C403.479 1550 400.119 1550 397.552 1548.69C395.294 1547.54 393.458 1545.71 392.308 1543.45C391 1540.88 391 1537.52 391 1530.8V1505.2Z" fill="#d2cefe"/>
<path d="M391 1581.2C391 1574.48 391 1571.12 392.308 1568.55C393.458 1566.29 395.294 1564.46 397.552 1563.31C400.119 1562 403.479 1562 410.2 1562H459.8C466.521 1562 469.881 1562 472.448 1563.31C474.706 1564.46 476.542 1566.29 477.692 1568.55C479 1571.12 479 1574.48 479 1581.2V1606.8C479 1613.52 479 1616.88 477.692 1619.45C476.542 1621.71 474.706 1623.54 472.448 1624.69C469.881 1626 466.521 1626 459.8 1626H410.2C403.479 1626 400.119 1626 397.552 1624.69C395.294 1623.54 393.458 1621.71 392.308 1619.45C391 1616.88 391 1613.52 391 1606.8V1581.2Z" fill="#d2cefe"/>
<path d="M391 1657.2C391 1650.48 391 1647.12 392.308 1644.55C393.458 1642.29 395.294 1640.46 397.552 1639.31C400.119 1638 403.479 1638 410.2 1638H459.8C466.521 1638 469.881 1638 472.448 1639.31C474.706 1640.46 476.542 1642.29 477.692 1644.55C479 1647.12 479 1650.48 479 1657.2V1682.8C479 1689.52 479 1692.88 477.692 1695.45C476.542 1697.71 474.706 1699.54 472.448 1700.69C469.881 1702 466.521 1702 459.8 1702H410.2C403.479 1702 400.119 1702 397.552 1700.69C395.294 1699.54 393.458 1697.71 392.308 1695.45C391 1692.88 391 1689.52 391 1682.8V1657.2Z" fill="#d2cefe"/>
<path d="M91 1621.2C91 1614.48 91 1611.12 92.3079 1608.55C93.4584 1606.29 95.2942 1604.46 97.5521 1603.31C100.119 1602 103.479 1602 110.2 1602H159.8C166.521 1602 169.881 1602 172.448 1603.31C174.706 1604.46 176.542 1606.29 177.692 1608.55C179 1611.12 179 1614.48 179 1621.2V1646.8C179 1653.52 179 1656.88 177.692 1659.45C176.542 1661.71 174.706 1663.54 172.448 1664.69C169.881 1666 166.521 1666 159.8 1666H110.2C103.479 1666 100.119 1666 97.5521 1664.69C95.2942 1663.54 93.4584 1661.71 92.3079 1659.45C91 1656.88 91 1653.52 91 1646.8V1621.2Z" fill="#d2cefe"/>
<path d="M291 1621.2C291 1614.48 291 1611.12 292.308 1608.55C293.458 1606.29 295.294 1604.46 297.552 1603.31C300.119 1602 303.479 1602 310.2 1602H359.8C366.521 1602 369.881 1602 372.448 1603.31C374.706 1604.46 376.542 1606.29 377.692 1608.55C379 1611.12 379 1614.48 379 1621.2V1646.8C379 1653.52 379 1656.88 377.692 1659.45C376.542 1661.71 374.706 1663.54 372.448 1664.69C369.881 1666 366.521 1666 359.8 1666H310.2C303.479 1666 300.119 1666 297.552 1664.69C295.294 1663.54 293.458 1661.71 292.308 1659.45C291 1656.88 291 1653.52 291 1646.8V1621.2Z" fill="#d2cefe"/>
<path d="M91 1697.2C91 1690.48 91 1687.12 92.3079 1684.55C93.4584 1682.29 95.2942 1680.46 97.5521 1679.31C100.119 1678 103.479 1678 110.2 1678H159.8C166.521 1678 169.881 1678 172.448 1679.31C174.706 1680.46 176.542 1682.29 177.692 1684.55C179 1687.12 179 1690.48 179 1697.2V1722.8C179 1729.52 179 1732.88 177.692 1735.45C176.542 1737.71 174.706 1739.54 172.448 1740.69C169.881 1742 166.521 1742 159.8 1742H110.2C103.479 1742 100.119 1742 97.5521 1740.69C95.2942 1739.54 93.4584 1737.71 92.3079 1735.45C91 1732.88 91 1729.52 91 1722.8V1697.2Z" fill="#d2cefe"/>
<path d="M291 1697.2C291 1690.48 291 1687.12 292.308 1684.55C293.458 1682.29 295.294 1680.46 297.552 1679.31C300.119 1678 303.479 1678 310.2 1678H359.8C366.521 1678 369.881 1678 372.448 1679.31C374.706 1680.46 376.542 1682.29 377.692 1684.55C379 1687.12 379 1690.48 379 1697.2V1722.8C379 1729.52 379 1732.88 377.692 1735.45C376.542 1737.71 374.706 1739.54 372.448 1740.69C369.881 1742 366.521 1742 359.8 1742H310.2C303.479 1742 300.119 1742 297.552 1740.69C295.294 1739.54 293.458 1737.71 292.308 1735.45C291 1732.88 291 1729.52 291 1722.8V1697.2Z" fill="#d2cefe"/>
<path d="M-9 1279.2C-9 1272.48 -9 1269.12 -7.69208 1266.55C-6.5416 1264.29 -4.70583 1262.46 -2.44789 1261.31C0.119055 1260 3.47937 1260 10.2 1260H59.8C66.5206 1260 69.8809 1260 72.4479 1261.31C74.7058 1262.46 76.5416 1264.29 77.6921 1266.55C79 1269.12 79 1272.48 79 1279.2V1304.8C79 1311.52 79 1314.88 77.6921 1317.45C76.5416 1319.71 74.7058 1321.54 72.4479 1322.69C69.8809 1324 66.5206 1324 59.8 1324H10.2C3.47937 1324 0.119055 1324 -2.44789 1322.69C-4.70583 1321.54 -6.5416 1319.71 -7.69208 1317.45C-9 1314.88 -9 1311.52 -9 1304.8V1279.2Z" fill="#d2cefe"/>
<path d="M191 1279.2C191 1272.48 191 1269.12 192.308 1266.55C193.458 1264.29 195.294 1262.46 197.552 1261.31C200.119 1260 203.479 1260 210.2 1260H259.8C266.521 1260 269.881 1260 272.448 1261.31C274.706 1262.46 276.542 1264.29 277.692 1266.55C279 1269.12 279 1272.48 279 1279.2V1304.8C279 1311.52 279 1314.88 277.692 1317.45C276.542 1319.71 274.706 1321.54 272.448 1322.69C269.881 1324 266.521 1324 259.8 1324H210.2C203.479 1324 200.119 1324 197.552 1322.69C195.294 1321.54 193.458 1319.71 192.308 1317.45C191 1314.88 191 1311.52 191 1304.8V1279.2Z" fill="#d2cefe"/>
<path d="M-9 1355.2C-9 1348.48 -9 1345.12 -7.69208 1342.55C-6.5416 1340.29 -4.70583 1338.46 -2.44789 1337.31C0.119055 1336 3.47937 1336 10.2 1336H59.8C66.5206 1336 69.8809 1336 72.4479 1337.31C74.7058 1338.46 76.5416 1340.29 77.6921 1342.55C79 1345.12 79 1348.48 79 1355.2V1380.8C79 1387.52 79 1390.88 77.6921 1393.45C76.5416 1395.71 74.7058 1397.54 72.4479 1398.69C69.8809 1400 66.5206 1400 59.8 1400H10.2C3.47937 1400 0.119055 1400 -2.44789 1398.69C-4.70583 1397.54 -6.5416 1395.71 -7.69208 1393.45C-9 1390.88 -9 1387.52 -9 1380.8V1355.2Z" fill="#d2cefe"/>
<path d="M191 1355.2C191 1348.48 191 1345.12 192.308 1342.55C193.458 1340.29 195.294 1338.46 197.552 1337.31C200.119 1336 203.479 1336 210.2 1336H259.8C266.521 1336 269.881 1336 272.448 1337.31C274.706 1338.46 276.542 1340.29 277.692 1342.55C279 1345.12 279 1348.48 279 1355.2V1380.8C279 1387.52 279 1390.88 277.692 1393.45C276.542 1395.71 274.706 1397.54 272.448 1398.69C269.881 1400 266.521 1400 259.8 1400H210.2C203.479 1400 200.119 1400 197.552 1398.69C195.294 1397.54 193.458 1395.71 192.308 1393.45C191 1390.88 191 1387.52 191 1380.8V1355.2Z" fill="#d2cefe"/>
<path d="M91 1319.2C91 1312.48 91 1309.12 92.3079 1306.55C93.4584 1304.29 95.2942 1302.46 97.5521 1301.31C100.119 1300 103.479 1300 110.2 1300H159.8C166.521 1300 169.881 1300 172.448 1301.31C174.706 1302.46 176.542 1304.29 177.692 1306.55C179 1309.12 179 1312.48 179 1319.2V1344.8C179 1351.52 179 1354.88 177.692 1357.45C176.542 1359.71 174.706 1361.54 172.448 1362.69C169.881 1364 166.521 1364 159.8 1364H110.2C103.479 1364 100.119 1364 97.5521 1362.69C95.2942 1361.54 93.4584 1359.71 92.3079 1357.45C91 1354.88 91 1351.52 91 1344.8V1319.2Z" fill="#d2cefe"/>
<path d="M291 1319.2C291 1312.48 291 1309.12 292.308 1306.55C293.458 1304.29 295.294 1302.46 297.552 1301.31C300.119 1300 303.479 1300 310.2 1300H359.8C366.521 1300 369.881 1300 372.448 1301.31C374.706 1302.46 376.542 1304.29 377.692 1306.55C379 1309.12 379 1312.48 379 1319.2V1344.8C379 1351.52 379 1354.88 377.692 1357.45C376.542 1359.71 374.706 1361.54 372.448 1362.69C369.881 1364 366.521 1364 359.8 1364H310.2C303.479 1364 300.119 1364 297.552 1362.69C295.294 1361.54 293.458 1359.71 292.308 1357.45C291 1354.88 291 1351.52 291 1344.8V1319.2Z" fill="#d2cefe"/>
<path d="M-9 1431.2C-9 1424.48 -9 1421.12 -7.69208 1418.55C-6.5416 1416.29 -4.70583 1414.46 -2.44789 1413.31C0.119055 1412 3.47937 1412 10.2 1412H59.8C66.5206 1412 69.8809 1412 72.4479 1413.31C74.7058 1414.46 76.5416 1416.29 77.6921 1418.55C79 1421.12 79 1424.48 79 1431.2V1456.8C79 1463.52 79 1466.88 77.6921 1469.45C76.5416 1471.71 74.7058 1473.54 72.4479 1474.69C69.8809 1476 66.5206 1476 59.8 1476H10.2C3.47937 1476 0.119055 1476 -2.44789 1474.69C-4.70583 1473.54 -6.5416 1471.71 -7.69208 1469.45C-9 1466.88 -9 1463.52 -9 1456.8V1431.2Z" fill="#d2cefe"/>
<path d="M191 1431.2C191 1424.48 191 1421.12 192.308 1418.55C193.458 1416.29 195.294 1414.46 197.552 1413.31C200.119 1412 203.479 1412 210.2 1412H259.8C266.521 1412 269.881 1412 272.448 1413.31C274.706 1414.46 276.542 1416.29 277.692 1418.55C279 1421.12 279 1424.48 279 1431.2V1456.8C279 1463.52 279 1466.88 277.692 1469.45C276.542 1471.71 274.706 1473.54 272.448 1474.69C269.881 1476 266.521 1476 259.8 1476H210.2C203.479 1476 200.119 1476 197.552 1474.69C195.294 1473.54 193.458 1471.71 192.308 1469.45C191 1466.88 191 1463.52 191 1456.8V1431.2Z" fill="#d2cefe"/>
<path d="M391 1279.2C391 1272.48 391 1269.12 392.308 1266.55C393.458 1264.29 395.294 1262.46 397.552 1261.31C400.119 1260 403.479 1260 410.2 1260H459.8C466.521 1260 469.881 1260 472.448 1261.31C474.706 1262.46 476.542 1264.29 477.692 1266.55C479 1269.12 479 1272.48 479 1279.2V1304.8C479 1311.52 479 1314.88 477.692 1317.45C476.542 1319.71 474.706 1321.54 472.448 1322.69C469.881 1324 466.521 1324 459.8 1324H410.2C403.479 1324 400.119 1324 397.552 1322.69C395.294 1321.54 393.458 1319.71 392.308 1317.45C391 1314.88 391 1311.52 391 1304.8V1279.2Z" fill="#d2cefe"/>
<path d="M391 1355.2C391 1348.48 391 1345.12 392.308 1342.55C393.458 1340.29 395.294 1338.46 397.552 1337.31C400.119 1336 403.479 1336 410.2 1336H459.8C466.521 1336 469.881 1336 472.448 1337.31C474.706 1338.46 476.542 1340.29 477.692 1342.55C479 1345.12 479 1348.48 479 1355.2V1380.8C479 1387.52 479 1390.88 477.692 1393.45C476.542 1395.71 474.706 1397.54 472.448 1398.69C469.881 1400 466.521 1400 459.8 1400H410.2C403.479 1400 400.119 1400 397.552 1398.69C395.294 1397.54 393.458 1395.71 392.308 1393.45C391 1390.88 391 1387.52 391 1380.8V1355.2Z" fill="#d2cefe"/>
<path d="M391 1431.2C391 1424.48 391 1421.12 392.308 1418.55C393.458 1416.29 395.294 1414.46 397.552 1413.31C400.119 1412 403.479 1412 410.2 1412H459.8C466.521 1412 469.881 1412 472.448 1413.31C474.706 1414.46 476.542 1416.29 477.692 1418.55C479 1421.12 479 1424.48 479 1431.2V1456.8C479 1463.52 479 1466.88 477.692 1469.45C476.542 1471.71 474.706 1473.54 472.448 1474.69C469.881 1476 466.521 1476 459.8 1476H410.2C403.479 1476 400.119 1476 397.552 1474.69C395.294 1473.54 393.458 1471.71 392.308 1469.45C391 1466.88 391 1463.52 391 1456.8V1431.2Z" fill="#d2cefe"/>
<path d="M91 1395.2C91 1388.48 91 1385.12 92.3079 1382.55C93.4584 1380.29 95.2942 1378.46 97.5521 1377.31C100.119 1376 103.479 1376 110.2 1376H159.8C166.521 1376 169.881 1376 172.448 1377.31C174.706 1378.46 176.542 1380.29 177.692 1382.55C179 1385.12 179 1388.48 179 1395.2V1420.8C179 1427.52 179 1430.88 177.692 1433.45C176.542 1435.71 174.706 1437.54 172.448 1438.69C169.881 1440 166.521 1440 159.8 1440H110.2C103.479 1440 100.119 1440 97.5521 1438.69C95.2942 1437.54 93.4584 1435.71 92.3079 1433.45C91 1430.88 91 1427.52 91 1420.8V1395.2Z" fill="#d2cefe"/>
<path d="M291 1395.2C291 1388.48 291 1385.12 292.308 1382.55C293.458 1380.29 295.294 1378.46 297.552 1377.31C300.119 1376 303.479 1376 310.2 1376H359.8C366.521 1376 369.881 1376 372.448 1377.31C374.706 1378.46 376.542 1380.29 377.692 1382.55C379 1385.12 379 1388.48 379 1395.2V1420.8C379 1427.52 379 1430.88 377.692 1433.45C376.542 1435.71 374.706 1437.54 372.448 1438.69C369.881 1440 366.521 1440 359.8 1440H310.2C303.479 1440 300.119 1440 297.552 1438.69C295.294 1437.54 293.458 1435.71 292.308 1433.45C291 1430.88 291 1427.52 291 1420.8V1395.2Z" fill="#d2cefe"/>
<path d="M91 1471.2C91 1464.48 91 1461.12 92.3079 1458.55C93.4584 1456.29 95.2942 1454.46 97.5521 1453.31C100.119 1452 103.479 1452 110.2 1452H159.8C166.521 1452 169.881 1452 172.448 1453.31C174.706 1454.46 176.542 1456.29 177.692 1458.55C179 1461.12 179 1464.48 179 1471.2V1496.8C179 1503.52 179 1506.88 177.692 1509.45C176.542 1511.71 174.706 1513.54 172.448 1514.69C169.881 1516 166.521 1516 159.8 1516H110.2C103.479 1516 100.119 1516 97.5521 1514.69C95.2942 1513.54 93.4584 1511.71 92.3079 1509.45C91 1506.88 91 1503.52 91 1496.8V1471.2Z" fill="#d2cefe"/>
<path d="M291 1471.2C291 1464.48 291 1461.12 292.308 1458.55C293.458 1456.29 295.294 1454.46 297.552 1453.31C300.119 1452 303.479 1452 310.2 1452H359.8C366.521 1452 369.881 1452 372.448 1453.31C374.706 1454.46 376.542 1456.29 377.692 1458.55C379 1461.12 379 1464.48 379 1471.2V1496.8C379 1503.52 379 1506.88 377.692 1509.45C376.542 1511.71 374.706 1513.54 372.448 1514.69C369.881 1516 366.521 1516 359.8 1516H310.2C303.479 1516 300.119 1516 297.552 1514.69C295.294 1513.54 293.458 1511.71 292.308 1509.45C291 1506.88 291 1503.52 291 1496.8V1471.2Z" fill="#d2cefe"/>
<path d="M-9 1053.2C-9 1046.48 -9 1043.12 -7.69208 1040.55C-6.5416 1038.29 -4.70583 1036.46 -2.44789 1035.31C0.119055 1034 3.47937 1034 10.2 1034H59.8C66.5206 1034 69.8809 1034 72.4479 1035.31C74.7058 1036.46 76.5416 1038.29 77.6921 1040.55C79 1043.12 79 1046.48 79 1053.2V1078.8C79 1085.52 79 1088.88 77.6921 1091.45C76.5416 1093.71 74.7058 1095.54 72.4479 1096.69C69.8809 1098 66.5206 1098 59.8 1098H10.2C3.47937 1098 0.119055 1098 -2.44789 1096.69C-4.70583 1095.54 -6.5416 1093.71 -7.69208 1091.45C-9 1088.88 -9 1085.52 -9 1078.8V1053.2Z" fill="#d2cefe"/>
<path d="M191 1053.2C191 1046.48 191 1043.12 192.308 1040.55C193.458 1038.29 195.294 1036.46 197.552 1035.31C200.119 1034 203.479 1034 210.2 1034H259.8C266.521 1034 269.881 1034 272.448 1035.31C274.706 1036.46 276.542 1038.29 277.692 1040.55C279 1043.12 279 1046.48 279 1053.2V1078.8C279 1085.52 279 1088.88 277.692 1091.45C276.542 1093.71 274.706 1095.54 272.448 1096.69C269.881 1098 266.521 1098 259.8 1098H210.2C203.479 1098 200.119 1098 197.552 1096.69C195.294 1095.54 193.458 1093.71 192.308 1091.45C191 1088.88 191 1085.52 191 1078.8V1053.2Z" fill="#d2cefe"/>
<path d="M-9 1129.2C-9 1122.48 -9 1119.12 -7.69208 1116.55C-6.5416 1114.29 -4.70583 1112.46 -2.44789 1111.31C0.119055 1110 3.47937 1110 10.2 1110H59.8C66.5206 1110 69.8809 1110 72.4479 1111.31C74.7058 1112.46 76.5416 1114.29 77.6921 1116.55C79 1119.12 79 1122.48 79 1129.2V1154.8C79 1161.52 79 1164.88 77.6921 1167.45C76.5416 1169.71 74.7058 1171.54 72.4479 1172.69C69.8809 1174 66.5206 1174 59.8 1174H10.2C3.47937 1174 0.119055 1174 -2.44789 1172.69C-4.70583 1171.54 -6.5416 1169.71 -7.69208 1167.45C-9 1164.88 -9 1161.52 -9 1154.8V1129.2Z" fill="#d2cefe"/>
<path d="M191 1129.2C191 1122.48 191 1119.12 192.308 1116.55C193.458 1114.29 195.294 1112.46 197.552 1111.31C200.119 1110 203.479 1110 210.2 1110H259.8C266.521 1110 269.881 1110 272.448 1111.31C274.706 1112.46 276.542 1114.29 277.692 1116.55C279 1119.12 279 1122.48 279 1129.2V1154.8C279 1161.52 279 1164.88 277.692 1167.45C276.542 1169.71 274.706 1171.54 272.448 1172.69C269.881 1174 266.521 1174 259.8 1174H210.2C203.479 1174 200.119 1174 197.552 1172.69C195.294 1171.54 193.458 1169.71 192.308 1167.45C191 1164.88 191 1161.52 191 1154.8V1129.2Z" fill="#d2cefe"/>
<path d="M91 1093.2C91 1086.48 91 1083.12 92.3079 1080.55C93.4584 1078.29 95.2942 1076.46 97.5521 1075.31C100.119 1074 103.479 1074 110.2 1074H159.8C166.521 1074 169.881 1074 172.448 1075.31C174.706 1076.46 176.542 1078.29 177.692 1080.55C179 1083.12 179 1086.48 179 1093.2V1118.8C179 1125.52 179 1128.88 177.692 1131.45C176.542 1133.71 174.706 1135.54 172.448 1136.69C169.881 1138 166.521 1138 159.8 1138H110.2C103.479 1138 100.119 1138 97.5521 1136.69C95.2942 1135.54 93.4584 1133.71 92.3079 1131.45C91 1128.88 91 1125.52 91 1118.8V1093.2Z" fill="#d2cefe"/>
<path d="M291 1093.2C291 1086.48 291 1083.12 292.308 1080.55C293.458 1078.29 295.294 1076.46 297.552 1075.31C300.119 1074 303.479 1074 310.2 1074H359.8C366.521 1074 369.881 1074 372.448 1075.31C374.706 1076.46 376.542 1078.29 377.692 1080.55C379 1083.12 379 1086.48 379 1093.2V1118.8C379 1125.52 379 1128.88 377.692 1131.45C376.542 1133.71 374.706 1135.54 372.448 1136.69C369.881 1138 366.521 1138 359.8 1138H310.2C303.479 1138 300.119 1138 297.552 1136.69C295.294 1135.54 293.458 1133.71 292.308 1131.45C291 1128.88 291 1125.52 291 1118.8V1093.2Z" fill="#d2cefe"/>
<path d="M-9 1205.2C-9 1198.48 -9 1195.12 -7.69208 1192.55C-6.5416 1190.29 -4.70583 1188.46 -2.44789 1187.31C0.119055 1186 3.47937 1186 10.2 1186H59.8C66.5206 1186 69.8809 1186 72.4479 1187.31C74.7058 1188.46 76.5416 1190.29 77.6921 1192.55C79 1195.12 79 1198.48 79 1205.2V1230.8C79 1237.52 79 1240.88 77.6921 1243.45C76.5416 1245.71 74.7058 1247.54 72.4479 1248.69C69.8809 1250 66.5206 1250 59.8 1250H10.2C3.47937 1250 0.119055 1250 -2.44789 1248.69C-4.70583 1247.54 -6.5416 1245.71 -7.69208 1243.45C-9 1240.88 -9 1237.52 -9 1230.8V1205.2Z" fill="#d2cefe"/>
<path d="M191 1205.2C191 1198.48 191 1195.12 192.308 1192.55C193.458 1190.29 195.294 1188.46 197.552 1187.31C200.119 1186 203.479 1186 210.2 1186H259.8C266.521 1186 269.881 1186 272.448 1187.31C274.706 1188.46 276.542 1190.29 277.692 1192.55C279 1195.12 279 1198.48 279 1205.2V1230.8C279 1237.52 279 1240.88 277.692 1243.45C276.542 1245.71 274.706 1247.54 272.448 1248.69C269.881 1250 266.521 1250 259.8 1250H210.2C203.479 1250 200.119 1250 197.552 1248.69C195.294 1247.54 193.458 1245.71 192.308 1243.45C191 1240.88 191 1237.52 191 1230.8V1205.2Z" fill="#d2cefe"/>
<path d="M391 1053.2C391 1046.48 391 1043.12 392.308 1040.55C393.458 1038.29 395.294 1036.46 397.552 1035.31C400.119 1034 403.479 1034 410.2 1034H459.8C466.521 1034 469.881 1034 472.448 1035.31C474.706 1036.46 476.542 1038.29 477.692 1040.55C479 1043.12 479 1046.48 479 1053.2V1078.8C479 1085.52 479 1088.88 477.692 1091.45C476.542 1093.71 474.706 1095.54 472.448 1096.69C469.881 1098 466.521 1098 459.8 1098H410.2C403.479 1098 400.119 1098 397.552 1096.69C395.294 1095.54 393.458 1093.71 392.308 1091.45C391 1088.88 391 1085.52 391 1078.8V1053.2Z" fill="#d2cefe"/>
<path d="M391 1129.2C391 1122.48 391 1119.12 392.308 1116.55C393.458 1114.29 395.294 1112.46 397.552 1111.31C400.119 1110 403.479 1110 410.2 1110H459.8C466.521 1110 469.881 1110 472.448 1111.31C474.706 1112.46 476.542 1114.29 477.692 1116.55C479 1119.12 479 1122.48 479 1129.2V1154.8C479 1161.52 479 1164.88 477.692 1167.45C476.542 1169.71 474.706 1171.54 472.448 1172.69C469.881 1174 466.521 1174 459.8 1174H410.2C403.479 1174 400.119 1174 397.552 1172.69C395.294 1171.54 393.458 1169.71 392.308 1167.45C391 1164.88 391 1161.52 391 1154.8V1129.2Z" fill="#d2cefe"/>
<path d="M391 1205.2C391 1198.48 391 1195.12 392.308 1192.55C393.458 1190.29 395.294 1188.46 397.552 1187.31C400.119 1186 403.479 1186 410.2 1186H459.8C466.521 1186 469.881 1186 472.448 1187.31C474.706 1188.46 476.542 1190.29 477.692 1192.55C479 1195.12 479 1198.48 479 1205.2V1230.8C479 1237.52 479 1240.88 477.692 1243.45C476.542 1245.71 474.706 1247.54 472.448 1248.69C469.881 1250 466.521 1250 459.8 1250H410.2C403.479 1250 400.119 1250 397.552 1248.69C395.294 1247.54 393.458 1245.71 392.308 1243.45C391 1240.88 391 1237.52 391 1230.8V1205.2Z" fill="#d2cefe"/>
<path d="M91 1169.2C91 1162.48 91 1159.12 92.3079 1156.55C93.4584 1154.29 95.2942 1152.46 97.5521 1151.31C100.119 1150 103.479 1150 110.2 1150H159.8C166.521 1150 169.881 1150 172.448 1151.31C174.706 1152.46 176.542 1154.29 177.692 1156.55C179 1159.12 179 1162.48 179 1169.2V1194.8C179 1201.52 179 1204.88 177.692 1207.45C176.542 1209.71 174.706 1211.54 172.448 1212.69C169.881 1214 166.521 1214 159.8 1214H110.2C103.479 1214 100.119 1214 97.5521 1212.69C95.2942 1211.54 93.4584 1209.71 92.3079 1207.45C91 1204.88 91 1201.52 91 1194.8V1169.2Z" fill="#d2cefe"/>
<path d="M291 1169.2C291 1162.48 291 1159.12 292.308 1156.55C293.458 1154.29 295.294 1152.46 297.552 1151.31C300.119 1150 303.479 1150 310.2 1150H359.8C366.521 1150 369.881 1150 372.448 1151.31C374.706 1152.46 376.542 1154.29 377.692 1156.55C379 1159.12 379 1162.48 379 1169.2V1194.8C379 1201.52 379 1204.88 377.692 1207.45C376.542 1209.71 374.706 1211.54 372.448 1212.69C369.881 1214 366.521 1214 359.8 1214H310.2C303.479 1214 300.119 1214 297.552 1212.69C295.294 1211.54 293.458 1209.71 292.308 1207.45C291 1204.88 291 1201.52 291 1194.8V1169.2Z" fill="#d2cefe"/>
<path d="M91 1245.2C91 1238.48 91 1235.12 92.3079 1232.55C93.4584 1230.29 95.2942 1228.46 97.5521 1227.31C100.119 1226 103.479 1226 110.2 1226H159.8C166.521 1226 169.881 1226 172.448 1227.31C174.706 1228.46 176.542 1230.29 177.692 1232.55C179 1235.12 179 1238.48 179 1245.2V1270.8C179 1277.52 179 1280.88 177.692 1283.45C176.542 1285.71 174.706 1287.54 172.448 1288.69C169.881 1290 166.521 1290 159.8 1290H110.2C103.479 1290 100.119 1290 97.5521 1288.69C95.2942 1287.54 93.4584 1285.71 92.3079 1283.45C91 1280.88 91 1277.52 91 1270.8V1245.2Z" fill="#d2cefe"/>
<path d="M291 1245.2C291 1238.48 291 1235.12 292.308 1232.55C293.458 1230.29 295.294 1228.46 297.552 1227.31C300.119 1226 303.479 1226 310.2 1226H359.8C366.521 1226 369.881 1226 372.448 1227.31C374.706 1228.46 376.542 1230.29 377.692 1232.55C379 1235.12 379 1238.48 379 1245.2V1270.8C379 1277.52 379 1280.88 377.692 1283.45C376.542 1285.71 374.706 1287.54 372.448 1288.69C369.881 1290 366.521 1290 359.8 1290H310.2C303.479 1290 300.119 1290 297.552 1288.69C295.294 1287.54 293.458 1285.71 292.308 1283.45C291 1280.88 291 1277.52 291 1270.8V1245.2Z" fill="#d2cefe"/>
</g>
<defs>
<clipPath id="clip0_1343_9884">
<rect width="470" height="378" fill="white"/>
</clipPath>
</defs>
</svg>
