<svg width="355" height="565" viewBox="0 0 355 565" fill="none" xmlns="http://www.w3.org/2000/svg">
<path d="M0 21.0232C0 9.41241 9.4186 0 21.037 0L333.963 0C345.581 0 355 9.41243 355 21.0233V543.977C355 555.588 345.581 565 333.963 565H21.037C9.41859 565 0 555.588 0 543.977L0 21.0232Z" fill="url(#paint0_linear_33658_48164)"/>
<path d="M197.085 137.637C193.021 137.637 189.728 134.413 189.728 130.435V67.9585C189.728 63.9813 193.021 60.7571 197.085 60.7571H245.976C250.039 60.7571 253.333 63.9813 253.333 67.9585V130.435C253.333 134.413 250.039 137.637 245.976 137.637H197.085Z" fill="url(#paint1_linear_33658_48164)"/>
<path fill-rule="evenodd" clip-rule="evenodd" d="M190.345 130.436C190.345 134.079 193.363 137.032 197.085 137.032H245.976C249.698 137.032 252.715 134.079 252.715 130.436V67.9588C252.715 64.3155 249.698 61.362 245.976 61.362H197.085C193.363 61.362 190.345 64.3155 190.345 67.9588V130.436ZM189.728 130.436C189.728 134.413 193.021 137.637 197.085 137.637H245.976C250.039 137.637 253.333 134.413 253.333 130.436V67.9588C253.333 63.9815 250.039 60.7573 245.976 60.7573H197.085C193.021 60.7573 189.728 63.9815 189.728 67.9588V130.436Z" fill="url(#paint2_linear_33658_48164)" fill-opacity="0.3"/>
<path fill-rule="evenodd" clip-rule="evenodd" d="M206.355 65.6617H215.002V85.6147H206.355C205.186 85.6147 204.112 86.0117 203.266 86.6756L203.266 68.6849C203.266 67.0152 204.649 65.6617 206.355 65.6617ZM206.355 63.8478H215.002H216.855H225.503H227.356H236.622C239.351 63.8478 241.563 66.0134 241.563 68.6849V90.4517V107.986V129.753C241.563 132.424 239.351 134.59 236.622 134.59H227.356H225.503H216.855H215.002H206.355C203.625 134.59 201.413 132.424 201.413 129.753V107.986V90.4517V68.6849C201.413 66.0134 203.625 63.8478 206.355 63.8478ZM215.002 132.776H206.355C204.649 132.776 203.266 131.423 203.266 129.753V111.762C204.112 112.426 205.186 112.823 206.355 112.823H215.002L215.002 132.776ZM216.855 132.776H225.503V112.823H216.855V132.776ZM227.356 112.823V132.776H236.622C238.327 132.776 239.71 131.423 239.71 129.753V111.762C238.864 112.426 237.79 112.823 236.622 112.823H227.356ZM215.002 111.009H206.355C204.649 111.009 203.266 109.656 203.266 107.986V90.4517C203.266 88.7821 204.649 87.4286 206.355 87.4286H215.002H216.855H225.503H227.356H236.622C238.327 87.4286 239.71 88.7821 239.71 90.4517L239.71 107.986C239.71 109.656 238.327 111.009 236.622 111.009H227.356H225.503H216.855H215.002ZM216.855 65.6617H225.503V85.6147H216.855V65.6617ZM236.622 85.6147L227.356 85.6147V65.6617H236.622C238.327 65.6617 239.71 67.0152 239.71 68.6849V86.6756C238.864 86.0117 237.79 85.6147 236.622 85.6147Z" fill="url(#paint3_linear_33658_48164)" fill-opacity="0.3"/>
<path fill-rule="evenodd" clip-rule="evenodd" d="M206.355 64.4524H215.002V85.6147H206.355C204.494 85.6147 202.874 86.6211 202.031 88.1082V68.6849C202.031 66.3474 203.967 64.4524 206.355 64.4524ZM206.355 63.8478H215.002H215.62H226.739H227.356H236.622C239.351 63.8478 241.563 66.0134 241.563 68.6849V90.4517V107.986V129.753C241.563 132.424 239.351 134.59 236.622 134.59H227.356H226.739H215.62H215.002H206.355C203.625 134.59 201.413 132.424 201.413 129.753V107.986V90.4517V68.6849C201.413 66.0134 203.625 63.8478 206.355 63.8478ZM215.002 133.985H206.355C203.967 133.985 202.031 132.091 202.031 129.753V110.33C202.874 111.817 204.494 112.823 206.355 112.823H215.002L215.002 133.985ZM215.62 133.985H226.739V112.823H215.62V133.985ZM227.356 112.823V133.985H236.622C239.01 133.985 240.946 132.091 240.946 129.753V110.33C240.103 111.817 238.482 112.823 236.622 112.823H227.356ZM215.002 112.219H206.355C203.967 112.219 202.031 110.324 202.031 107.986V90.4517C202.031 88.1142 203.967 86.2193 206.355 86.2193H215.002H215.62H226.739H227.356H236.622C239.01 86.2193 240.946 88.1142 240.946 90.4517V107.986C240.946 110.324 239.01 112.219 236.622 112.219H227.356H226.739H215.62H215.002ZM215.62 64.4524H226.739V85.6147H215.62L215.62 64.4524ZM236.622 85.6147H227.356V64.4524H236.622C239.01 64.4524 240.946 66.3474 240.946 68.6849V88.1082C240.103 86.6211 238.482 85.6147 236.622 85.6147Z" fill="url(#paint4_linear_33658_48164)"/>
<path fill-rule="evenodd" clip-rule="evenodd" d="M282.025 105.969C281.527 105.766 280.959 105.099 280.789 104.521C280.602 103.874 280.755 103.36 281.503 102.151C282.465 100.596 282.688 99.7626 282.688 97.7297C282.688 95.6992 282.465 94.8655 281.503 93.3103C281.177 92.7824 280.849 92.1517 280.776 91.9081C280.466 90.8833 281.335 89.6267 282.501 89.4117C283.49 89.2302 284.168 89.6626 285.076 91.0576C287.707 95.0972 287.707 100.494 285.076 104.497C284.146 105.912 283.111 106.411 282.025 105.969Z" fill="white"/>
<path fill-rule="evenodd" clip-rule="evenodd" d="M289.652 109.804C289.025 109.525 288.483 108.87 288.335 108.213C288.245 107.812 288.4 107.367 289.146 105.882C291.886 100.428 291.915 95.1723 289.236 89.8452C288.06 87.5041 288.034 87.0383 289.03 86.1162C289.52 85.6623 289.729 85.5811 290.419 85.5811C291.575 85.5811 292.175 86.152 293.208 88.2399C294.796 91.4505 295.448 94.2359 295.443 97.8048C295.438 101.472 294.828 103.99 293.13 107.375C292.158 109.314 291.677 109.826 290.703 109.957C290.407 109.998 289.933 109.928 289.652 109.804Z" fill="white"/>
<path fill-rule="evenodd" clip-rule="evenodd" d="M297.802 113.951C296.787 113.66 296.053 112.432 296.347 111.512C296.418 111.29 296.896 110.265 297.411 109.233C299.585 104.871 300.491 100.191 300.047 95.6C299.683 91.8256 298.995 89.444 297.263 85.9634C296.102 83.6271 296.046 83.264 296.721 82.3228C297.365 81.4294 298.968 81.2836 299.811 82.0433C300.397 82.5712 302.211 86.3002 302.913 88.4144C305.233 95.4041 304.879 102.91 301.905 109.778C300.382 113.294 299.313 114.384 297.802 113.951Z" fill="white"/>
<path fill-rule="evenodd" clip-rule="evenodd" d="M305.675 118.011C305.012 117.822 304.339 117.045 304.198 116.305C304.106 115.822 304.218 115.488 304.92 114.15C307.762 108.744 308.996 103.773 308.996 97.7364C308.996 91.9004 307.903 87.3616 305.187 81.9222C304.604 80.7541 304.128 79.6695 304.128 79.5119C304.128 78.9338 304.621 78.0953 305.153 77.7656C305.884 77.3141 307.111 77.3977 307.696 77.94C307.922 78.1478 308.508 79.0938 308.998 80.0422C310.942 83.7927 312.273 87.9087 312.931 92.1943C313.337 94.8459 313.419 99.872 313.094 102.299C312.494 106.776 311.291 110.772 309.368 114.688C308.204 117.053 307.475 118.027 306.863 118.027C306.742 118.027 306.542 118.056 306.421 118.094C306.297 118.13 305.962 118.092 305.675 118.011Z" fill="white"/>
<path d="M275.562 462.938H247.875V514.772H275.562V462.938Z" fill="#FF7421"/>
<path d="M249.156 489.237C249.152 484.2 250.247 479.228 252.359 474.697C254.471 470.167 257.544 466.196 261.345 463.086C256.637 459.229 250.983 456.831 245.029 456.165C239.076 455.5 233.062 456.593 227.677 459.321C222.291 462.05 217.751 466.302 214.574 471.593C211.397 476.884 209.713 483 209.713 489.242C209.713 495.484 211.397 501.599 214.574 506.89C217.751 512.181 222.291 516.434 227.677 519.162C233.062 521.89 239.076 522.984 245.029 522.318C250.983 521.653 256.637 519.254 261.345 515.397C257.542 512.287 254.469 508.314 252.357 503.782C250.245 499.25 249.151 494.276 249.156 489.237V489.237Z" fill="#EB001B"/>
<path d="M313.725 488.86C313.725 495.028 312.015 501.073 308.792 506.302C305.569 511.531 300.963 515.734 295.499 518.429C290.035 521.125 283.935 522.205 277.895 521.546C271.855 520.888 266.12 518.516 261.345 514.704C265.199 511.627 268.315 507.702 270.458 503.225C272.601 498.747 273.714 493.833 273.714 488.855C273.714 483.877 272.601 478.963 270.458 474.485C268.315 470.008 265.199 466.083 261.345 463.006C266.12 459.194 271.855 456.822 277.895 456.164C283.935 455.505 290.035 456.585 295.499 459.281C300.963 461.976 305.569 466.179 308.792 471.408C312.015 476.637 313.725 482.681 313.725 488.85V488.86Z" fill="#F79E1B"/>
<path d="M72.7132 472.88C72.7132 475.573 70.4951 477.757 67.7585 477.757C65.0218 477.757 62.8037 475.573 62.8037 472.88C62.8037 470.186 65.0218 468.002 67.7585 468.002C70.4951 467.974 72.7132 470.157 72.7132 472.88Z" fill="white"/>
<path d="M59.1451 479.939V487.169H50.6183V499.164C50.6183 501.829 51.857 502.878 54.6512 502.878H59.1739V509.797H54.0751C46.038 509.797 42.4084 506.253 42.4084 499.561V487.169H38.001V479.939C40.4207 479.939 42.3796 478.01 42.3796 475.628V472.254H50.5895V479.939H59.1451V479.939Z" fill="white"/>
<path d="M71.8486 479.938H63.6387V509.796H71.8486V479.938Z" fill="white"/>
<path d="M99.7621 507.614C97.6304 509.259 94.3176 510.223 90.8896 510.223C82.6221 510.223 75.5645 503.645 75.5645 495.025C75.5645 486.404 82.5933 479.656 90.8896 479.656C94.3176 479.656 97.6304 480.705 99.7621 482.321V469.93H107.972V509.826H99.7621V507.614ZM99.8773 495.025C99.8773 490.601 96.2188 487 91.6098 487C87.1159 487 83.6303 490.601 83.6303 495.025C83.6303 499.505 87.1159 503.049 91.6098 503.049C96.3341 503.049 99.8773 499.505 99.8773 495.025Z" fill="white"/>
<path d="M126.696 510.51C116.988 510.51 110.737 503.818 110.737 494.971C110.737 486.35 117.248 479.375 126.754 479.375C136.346 479.375 142.137 485.897 142.137 494.574C142.137 495.736 142.021 497.239 142.021 497.438H118.832C119.725 501.209 122.606 503.676 126.869 503.676C130.527 503.676 133.207 502.116 134.906 499.706L141.071 503.421C138.132 507.787 133.437 510.51 126.696 510.51ZM119.12 491.426H133.84C132.947 487.825 130.009 486.01 126.696 486.01C122.865 486.01 120.186 488.052 119.12 491.426Z" fill="white"/>
<defs>
<linearGradient id="paint0_linear_33658_48164" x1="1.05798e-05" y1="565" x2="355" y2="-1.65811e-05" gradientUnits="userSpaceOnUse">
<stop stop-color="#0C169A"/>
<stop offset="1" stop-color="#4F52BE"/>
</linearGradient>
<linearGradient id="paint1_linear_33658_48164" x1="233.224" y1="60.8244" x2="196.302" y2="154.089" gradientUnits="userSpaceOnUse">
<stop stop-color="#BFBDB0"/>
<stop offset="0.501551" stop-color="#9E997F"/>
<stop offset="1" stop-color="#9B8E6B"/>
</linearGradient>
<linearGradient id="paint2_linear_33658_48164" x1="192.148" y1="144.567" x2="249.419" y2="57.8756" gradientUnits="userSpaceOnUse">
<stop stop-color="#565550"/>
<stop offset="1" stop-color="#726E62" stop-opacity="0.59"/>
</linearGradient>
<linearGradient id="paint3_linear_33658_48164" x1="239.903" y1="61.0121" x2="199.134" y2="146.496" gradientUnits="userSpaceOnUse">
<stop stop-color="#D0CFC5"/>
<stop offset="1" stop-color="#9C9A88"/>
</linearGradient>
<linearGradient id="paint4_linear_33658_48164" x1="207.832" y1="140.829" x2="247.969" y2="13.0066" gradientUnits="userSpaceOnUse">
<stop stop-color="#615E47"/>
<stop offset="1" stop-color="#68675E"/>
</linearGradient>
</defs>
</svg>
