<svg xmlns="http://www.w3.org/2000/svg" fill="none" viewBox="0 0 278 65" height="65" width="278">
<path fill="black" d="M8.4203 15.8559H2.67613C1.16451 15.8559 0 17.0327 0 18.5529V47.4268C0 48.8964 1.16451 50.1182 2.67613 50.1182H8.4203C17.8148 50.1182 25.4065 42.4324 25.4065 32.9392C25.4009 23.536 17.8092 15.8559 8.4203 15.8559ZM8.4203 44.6847H5.39705V21.2894H8.4203C14.8419 21.2894 20.0038 26.5259 20.0038 32.9392C19.9982 39.4482 14.8419 44.634 8.4203 44.6847ZM49.5141 14.8761C44.8336 14.8761 40.5619 16.8806 37.589 20.1126C34.5714 23.3446 32.7742 27.652 32.7742 32.5C32.7742 37.3423 34.5714 41.6948 37.589 44.8818C40.5619 48.0574 44.8392 50.1182 49.5141 50.1182C53.9873 50.1182 58.2703 48.0574 61.1424 44.8818C64.16 41.6948 66.0635 37.3423 66.0635 32.5C66.0635 27.652 64.16 23.3446 61.1424 20.1126C58.2703 16.8806 53.9873 14.8761 49.5141 14.8761ZM57.2009 41.0135C55.1518 43.2207 52.4309 44.5383 49.5085 44.5383C46.39 44.5383 43.6691 43.2151 41.6256 41.0135C39.5765 38.9077 38.3168 35.8277 38.3168 32.5C38.3168 29.1723 39.5821 26.0867 41.6256 23.9358C43.6691 21.7286 46.39 20.4561 49.5085 20.4561C52.4253 20.4561 55.1518 21.7286 57.2009 23.9358C59.1884 26.0867 60.5097 29.1723 60.5097 32.5C60.5097 35.8277 59.194 38.9077 57.2009 41.0135ZM96.4919 18.5473C96.4919 20.0113 95.2714 21.2894 93.8214 21.2894H86.0785V47.4212C86.0785 48.9358 84.9084 50.1126 83.4024 50.1126C81.9412 50.1126 80.7319 48.9358 80.7319 47.4212V21.2894H73.0394C71.5334 21.2894 70.3577 20.0113 70.3577 18.5473C70.3577 17.027 71.5334 15.8502 73.0394 15.8502H93.8214C95.2714 15.8559 96.4919 17.0327 96.4919 18.5473ZM212.585 20.2646L201.88 30.9854L212.691 45.2252C213.66 46.3513 213.464 48.0631 212.299 48.9977C211.812 49.4369 211.224 49.634 210.597 49.634C209.869 49.634 209.136 49.2905 208.598 48.6599L198.079 34.7973L193.017 39.9887V46.9369C193.017 48.4065 191.853 49.6284 190.347 49.6284C188.835 49.6284 187.665 48.4065 187.665 46.9369V18.3052C187.665 16.8863 188.835 15.6137 190.347 15.6137C191.853 15.6137 193.017 16.8863 193.017 18.3052V32.3536L208.789 16.4471C209.864 15.3716 211.515 15.3716 212.585 16.4471C213.604 17.4718 213.604 19.1836 212.585 20.2646ZM227.454 20.7996V29.7579H238.797C240.253 29.7579 241.468 31.0304 241.468 32.4437C241.468 33.964 240.247 35.1914 238.797 35.1914H227.454V44.1948H240.65C242.061 44.1948 243.321 45.4223 243.321 46.9369C243.321 48.4065 242.061 49.6284 240.65 49.6284H224.879L224.778 49.5777L224.734 49.6284C223.222 49.6284 222.052 48.4065 222.052 46.9369V18.0574C222.052 16.5428 223.222 15.3716 224.734 15.3716H224.778H224.879H240.65C242.061 15.3716 243.321 16.5428 243.321 18.0574C243.321 19.5777 242.061 20.8052 240.65 20.8052H227.454V20.7996ZM277.512 19.9662L267.535 33.7218V46.9369C267.535 48.4572 266.37 49.6284 264.859 49.6284C263.448 49.6284 262.188 48.4572 262.188 46.9369V33.7218L252.307 19.9662C251.383 18.795 251.624 17.1284 252.839 16.2444C254.059 15.366 255.705 15.6081 256.539 16.8356L264.859 28.2883L273.178 16.8356C274.108 15.6081 275.759 15.366 276.929 16.2444C278.094 17.1284 278.34 18.795 277.512 19.9662ZM176.737 3.65428C177.369 5.05068 177.688 6.58784 177.688 8.2714C177.688 11.4077 176.692 14.1554 174.699 16.5034C172.706 18.857 170.035 20.6588 166.687 21.9088C163.334 23.1588 159.639 23.7838 155.602 23.7838C160.568 28.0236 163.048 32.9279 163.048 38.5079C163.048 43.857 161.76 48.5304 159.191 52.5394C156.627 56.5428 153.111 59.6284 148.665 61.7736C144.22 63.9245 139.248 65 133.767 65C128.913 65 124.418 64.1554 120.292 62.4718C116.16 60.7883 112.817 58.2151 110.281 54.7579C107.734 51.3063 106.469 46.9932 106.469 41.8187C106.469 37.5225 107.706 33.795 110.192 30.625C112.672 27.4606 116.199 25.5011 120.762 24.741V24.482C117.117 21.7511 115.303 18.3559 115.303 14.2849C115.303 10.4504 116.692 7.37613 119.463 5.05067C122.234 2.72522 126.047 1.56532 130.895 1.56532C134.366 1.56532 137.278 2.33671 139.652 3.87387C142.02 5.41104 143.201 7.66329 143.201 10.6306C143.201 12.4887 142.669 14.0878 141.605 15.4223C140.531 16.7624 139.103 17.4268 137.317 17.4268C136.214 17.4268 135.279 17.134 134.495 16.5541C133.717 15.9741 133.331 15.4786 133.331 15.0732C133.331 15.0169 133.588 14.7579 134.109 14.2849C134.63 13.8232 135.105 13.2545 135.537 12.5901C135.968 11.9257 136.18 11.1486 136.18 10.2815C136.18 8.59797 135.593 7.24662 134.406 6.23311C133.224 5.21396 131.735 4.70721 129.944 4.70721C127.167 4.70721 125.022 5.5518 123.488 7.23536C121.96 8.92455 121.187 11.0079 121.187 13.5079C121.187 17.7534 122.951 20.8277 126.472 22.7421H129.333C130.252 22.7421 130.873 22.8435 131.198 23.0462C131.511 23.2545 131.702 23.8457 131.758 24.8311C131.758 25.411 131.612 25.9122 131.326 26.3119C131.041 26.7173 130.632 26.9257 130.117 26.9257H127.088C123.337 27.2691 120.493 28.7556 118.556 31.3682C116.619 33.9809 115.656 37.0045 115.656 40.4336C115.656 44.1498 116.524 47.4043 118.254 50.1914C119.984 52.9786 122.397 55.1295 125.487 56.6385C128.572 58.1532 132.082 58.9077 136.012 58.9077C140.228 58.9077 144.097 58.0236 147.618 56.25C151.146 54.482 153.939 52.0383 156.027 48.9302C158.11 45.8221 159.151 42.3255 159.151 38.4291C159.151 35.0619 158.222 32.1227 156.375 29.6227C154.527 27.1284 151.985 25.8784 148.749 25.8784C147.07 25.8784 145.441 26.3626 143.856 27.3198C142.266 28.277 141.471 29.6227 141.471 31.3682C141.471 32.2973 141.717 33.0968 142.21 33.7669C142.703 34.4313 143.436 34.848 144.422 35.0282C145.922 35.2027 147.137 34.9155 148.066 34.1554C148.984 33.4009 149.505 32.9955 149.623 32.9392C149.914 32.9955 150.278 33.3896 150.709 34.116C151.14 34.8423 151.353 35.67 151.353 36.6047C151.353 38.3446 150.765 39.7128 149.578 40.6982C148.397 41.6836 146.93 42.1791 145.205 42.1791C143.005 42.1791 141.247 41.295 139.92 39.527C138.588 37.7534 137.927 35.473 137.927 32.6858C137.927 28.5023 139.025 25.3097 141.219 23.0968C143.414 20.8896 146.017 19.3919 149.018 18.6092C152.024 17.8209 155.921 17.1396 160.719 16.5597C164.929 16.1543 168.025 15.6363 169.985 14.9887C171.256 14.527 172.308 13.8682 173.148 13.0293C173.988 12.1847 174.402 11.2444 174.402 10.1971C174.402 8.45158 173.338 7.43806 171.2 7.14527C169.699 6.97072 168.49 7.25788 167.561 8.01239C166.642 8.77252 166.116 9.17793 166.004 9.23423C165.663 9.17793 165.248 8.71059 164.789 7.83784C164.325 6.97072 164.179 5.97973 164.358 4.87613C164.593 3.24887 165.282 2.03266 166.435 1.21622C167.594 0.405405 168.949 0 170.505 0C171.776 0 172.846 0.202703 173.708 0.608108C175.091 1.24437 176.098 2.25788 176.737 3.65428Z"></path>
</svg>
