<svg width="24" height="24" viewBox="0 0 24 24" fill="none" xmlns="http://www.w3.org/2000/svg">
<g id="Megaphone">
<g id="Group">
<g id="Group_2">
<path id="Vector" d="M16.19 14.72L13.74 12.27L11.6 10.13L9.12 7.64999" stroke="black" stroke-width="1.5" stroke-linecap="round" stroke-linejoin="round"/>
<path id="Vector_2" d="M9.12 18.96L15.49 14.01L9.83001 8.36L4.88 14.72L9.12 18.96Z" stroke="black" stroke-width="1.5" stroke-linecap="round" stroke-linejoin="round"/>
<path id="Vector_3" d="M7.49001 20.6L9.13001 18.96L4.89 14.72L3.25 16.36C2.59 17.02 2.59 18.08 3.25 18.74L5.11001 20.6C5.76001 21.26 6.83001 21.26 7.49001 20.6Z" stroke="black" stroke-width="1.5" stroke-linecap="round" stroke-linejoin="round"/>
<path id="Vector_4" d="M9.29001 19.13L11.41 21.25" stroke="black" stroke-width="1.5" stroke-linecap="round" stroke-linejoin="round"/>
<path id="Vector_5" d="M13.61 10.23C14 10.62 14.01 11.25 13.61 11.64C13.53 11.72 13.43 11.8 13.31 11.84L12 10.53C12.04 10.42 12.11 10.32 12.2 10.23C12.6 9.82999 13.22 9.83999 13.61 10.23Z" stroke="black" stroke-width="1.5" stroke-linecap="round" stroke-linejoin="round"/>
</g>
<path id="Vector_6" d="M21.25 11.25H19.25" stroke="black" stroke-width="1.5" stroke-linecap="round" stroke-linejoin="round"/>
<path id="Vector_7" d="M18.91 5.09L17.2 6.8" stroke="black" stroke-width="1.5" stroke-linecap="round" stroke-linejoin="round"/>
<path id="Vector_8" d="M12.75 2.75V4.75" stroke="black" stroke-width="1.5" stroke-linecap="round" stroke-linejoin="round"/>
</g>
</g>
</svg>
