<svg xmlns="http://www.w3.org/2000/svg" viewBox="0 0 24 24">
  <g id="Group_872" data-name="Group 872" transform="translate(-2243.5 -5767.609)">
    <rect id="Rectangle_439" data-name="Rectangle 439" width="24" height="24" transform="translate(2243.5 5767.609)" fill="none"/>
    <g id="Group_871" data-name="Group 871">
      <line id="Line_59" data-name="Line 59" x2="6" transform="translate(2252.5 5774.277)" fill="none" stroke="#fff" stroke-linecap="round" stroke-linejoin="round" stroke-width="1.5"/>
      <line id="Line_60" data-name="Line 60" x2="10" transform="translate(2250.5 5778.277)" fill="none" stroke="#fff" stroke-linecap="round" stroke-linejoin="round" stroke-width="1.5"/>
      <g id="Group_870" data-name="Group 870">
        <circle id="Ellipse_119" data-name="Ellipse 119" cx="2.75" cy="2.75" r="2.75" transform="translate(2252.75 5781.984)" fill="none" stroke="#fff" stroke-linecap="round" stroke-linejoin="round" stroke-width="1.482"/>
        <path id="Path_6193" data-name="Path 6193" d="M2258.25,5784.734l2.75,2.75-2.625,2.625-2.635-2.635" fill="none" stroke="#fff" stroke-linecap="round" stroke-linejoin="round" stroke-width="1.482"/>
        <path id="Path_6194" data-name="Path 6194" d="M2255.26,5787.474l-2.635,2.635-2.625-2.625,2.75-2.75" fill="none" stroke="#fff" stroke-linecap="round" stroke-linejoin="round" stroke-width="1.482"/>
      </g>
      <path id="Path_6195" data-name="Path 6195" d="M2250,5787.485h-1.5a2,2,0,0,1-2-2v-13.376a2,2,0,0,1,2-2h14a2,2,0,0,1,2,2v13.376a2,2,0,0,1-2,2H2261" fill="none" stroke="#fff" stroke-linecap="round" stroke-linejoin="round" stroke-width="1.482"/>
    </g>
  </g>
</svg>
