<svg xmlns="http://www.w3.org/2000/svg" viewBox="0 0 24 24">
  <g id="Group_1875" data-name="Group 1875" transform="translate(-2187.5 -9858.609)">
    <g id="Group_1874" data-name="Group 1874">
      <path id="Path_6668" data-name="Path 6668" d="M2205.5,9875.609h2a1,1,0,0,1,1,1v2a1,1,0,0,1-1,1h-2a1,1,0,0,1-1-1v-2A1,1,0,0,1,2205.5,9875.609Z" fill="none" stroke="#323232" stroke-linecap="round" stroke-linejoin="round" stroke-width="1.5"/>
      <path id="Path_6669" data-name="Path 6669" d="M2191.5,9861.609h2a1,1,0,0,1,1,1v2a1,1,0,0,1-1,1h-2a1,1,0,0,1-1-1v-2A1,1,0,0,1,2191.5,9861.609Z" fill="none" stroke="#323232" stroke-linecap="round" stroke-linejoin="round" stroke-width="1.5"/>
      <path id="Path_6670" data-name="Path 6670" d="M2198.5,9868.609h2a1,1,0,0,1,1,1v2a1,1,0,0,1-1,1h-2a1,1,0,0,1-1-1v-2A1,1,0,0,1,2198.5,9868.609Z" fill="none" stroke="#323232" stroke-linecap="round" stroke-linejoin="round" stroke-width="1.5"/>
      <path id="Path_6671" data-name="Path 6671" d="M2198.5,9863.609h8a2,2,0,0,1,2,2v3a2,2,0,0,1-2,2h-2" fill="none" stroke="#323232" stroke-linecap="round" stroke-linejoin="round" stroke-width="1.5"/>
      <path id="Path_6672" data-name="Path 6672" d="M2200.5,9877.609h-8a2,2,0,0,1-2-2v-3a2,2,0,0,1,2-2h2" fill="none" stroke="#323232" stroke-linecap="round" stroke-linejoin="round" stroke-width="1.5"/>
    </g>
    <rect id="Rectangle_907" data-name="Rectangle 907" width="24" height="24" transform="translate(2187.5 9858.609)" fill="none"/>
  </g>
</svg>
