<svg xmlns="http://www.w3.org/2000/svg" viewBox="0 0 21.5 20.5">
  <g id="Group_1886" data-name="Group 1886" transform="translate(-1512.75 -6160.859)">
    <path id="Path_6684" data-name="Path 6684" d="M1518.5,6164.734h0a1.875,1.875,0,0,0-1.875,1.875h0" fill="none" stroke="#323232" stroke-linecap="round" stroke-linejoin="round" stroke-width="1.5"/>
    <path id="Path_6685" data-name="Path 6685" d="M1517.5,6161.609a4,4,0,0,0-4,4" fill="none" stroke="#323232" stroke-linecap="round" stroke-linejoin="round" stroke-width="1.5"/>
    <line id="Line_320" data-name="Line 320" y1="5" transform="translate(1516.5 6169.609)" fill="none" stroke="#323232" stroke-linecap="round" stroke-linejoin="round" stroke-width="1.5"/>
    <path id="Path_6686" data-name="Path 6686" d="M1529.5,6167.609v-1a2.01,2.01,0,0,0-2.018-2H1521.5" fill="none" stroke="#323232" stroke-linecap="round" stroke-linejoin="round" stroke-width="1.5"/>
    <rect id="Rectangle_913" data-name="Rectangle 913" width="8.125" height="13" rx="2" transform="translate(1533.5 6180.609) rotate(-180)" fill="none" stroke="#323232" stroke-linecap="round" stroke-linejoin="round" stroke-width="1.5"/>
    <line id="Line_321" data-name="Line 321" x2="1.75" transform="translate(1528.563 6178.359)" fill="none" stroke="#323232" stroke-linecap="round" stroke-linejoin="round" stroke-width="1.5"/>
    <path id="Path_6687" data-name="Path 6687" d="M1525.375,6174.609H1515.5a1,1,0,0,0-1,1v1a2,2,0,0,0,2,2h8.875" fill="none" stroke="#323232" stroke-linecap="round" stroke-linejoin="round" stroke-width="1.5"/>
  </g>
</svg>
