<svg xmlns="http://www.w3.org/2000/svg" viewBox="0 0 50 50"><defs><style>.cls-1{fill:#4e4e4e;fill-rule:evenodd;}</style></defs><g id="Layer_2" data-name="Layer 2"><g id="Layer_1-2" data-name="Layer 1"><g id="_1rvvut" data-name="1rvvut"><path class="cls-1" d="M14.65,49.32c7.9-6.44,10-15.36,12.65-24.1a78.2,78.2,0,0,1,5.12-13.83c1.65-3.18,4.43-5.89,7.1-8.4,2.38-2.24,5.55-1.65,7.85.89s2.21,4.8,0,7.32c-5,5.59-6.81,12.57-8.86,19.52a47.91,47.91,0,0,1-5,12C29.56,49,22.68,51.27,14.65,49.32Z"/><path class="cls-1" d="M35.23.73c-7,5.95-9.55,13.9-11.83,22-2,7-3.58,14.25-8.37,20.11a24.69,24.69,0,0,1-4.31,4.11C7.79,49.09,4.93,48.68,2.61,46S.51,41.18,3,38.43c4.29-4.75,6.13-10.61,7.9-16.56,1.32-4.44,2.53-9,4.65-13.09C19.33,1.53,27.13-1.52,35.23.73Z"/><path class="cls-1" d="M33,49.1c5.13-3.3,7.12-8.51,8.66-14,1.15-4.11,2-8.33,3.4-12.35a27.44,27.44,0,0,1,4.6-7.85c.09,8,.61,15.92.13,23.84-.41,6.64-5.59,10.63-12.27,10.76-1.43,0-2.85.18-4.28.27Z"/><path class="cls-1" d="M17.33.69c-6.27,4.32-8,10.63-9.81,17-1.39,4.8-3.24,9.47-5,14.15-1,2.3-1.12,1.87-1.82,2.49C.41,34.12.13,34,.13,34c0-7.41-.31-14.83,0-22.22C.49,5,5.86.45,12.6.46,14,.46,15.41.59,17.33.69Z"/></g></g></g></svg>