<svg xmlns="http://www.w3.org/2000/svg" viewBox="0 0 24 24">
  <g id="Group_1888" data-name="Group 1888" transform="translate(-1851.5 -839)">
    <path id="Path_6688" data-name="Path 6688" d="M1851.5,839h24v24h-24Z" fill="none"/>
    <g id="Group_1887" data-name="Group 1887">
      <path id="Path_6689" data-name="Path 6689" d="M1857.5,860h-2a1,1,0,0,1-1-1v-6a1,1,0,0,1,1-1h2a1,1,0,0,1,1,1v6A1,1,0,0,1,1857.5,860Z" fill="none" stroke="#323232" stroke-linecap="round" stroke-linejoin="round" stroke-width="1.5"/>
      <path id="Path_6690" data-name="Path 6690" d="M1864.5,856h1.96a2,2,0,0,0,1.2-.4l2.416-1.812a1.515,1.515,0,0,1,1.98.141h0a1.514,1.514,0,0,1,0,2.142l-2.073,2.073a4,4,0,0,1-2.044,1.094l-2.93.586a4,4,0,0,1-1.755-.042l-2.65-.662a3.956,3.956,0,0,0-.969-.12H1858.5" fill="none" stroke="#323232" stroke-linecap="round" stroke-linejoin="round" stroke-width="1.5"/>
      <path id="Path_6691" data-name="Path 6691" d="M1864.5,856h1.485a1.515,1.515,0,0,0,1.515-1.515v-.3a1.514,1.514,0,0,0-1.147-1.469l-2.292-.573a4.7,4.7,0,0,0-1.139-.14h0a4.69,4.69,0,0,0-2.6.789L1858.5,854" fill="none" stroke="#323232" stroke-linecap="round" stroke-linejoin="round" stroke-width="1.5"/>
      <path id="Path_6692" data-name="Path 6692" d="M1870.768,845.732a2.5,2.5,0,1,1-3.536,0,2.5,2.5,0,0,1,3.536,0" fill="none" stroke="#323232" stroke-linecap="round" stroke-linejoin="round" stroke-width="1.5"/>
      <rect id="Rectangle_914" data-name="Rectangle 914" width="5.11" height="5.11" rx="1.481" transform="translate(1857.386 844) rotate(-45)" fill="none" stroke="#323232" stroke-linecap="round" stroke-linejoin="round" stroke-width="1.5"/>
    </g>
  </g>
</svg>
