<svg width="24" height="24" viewBox="0 0 24 24" fill="none" xmlns="http://www.w3.org/2000/svg">
<g id="Face Id">
<g id="Group">
<g id="Group_2">
<g id="Group_3">
<path id="Vector" d="M16 2.75H18.17C19.88 2.75 21.25 4.12999 21.25 5.82999V7.89999" stroke="black" stroke-width="1.5" stroke-linecap="round" stroke-linejoin="round"/>
<path id="Vector_2" d="M2.75 7.89999V5.82999C2.75 4.11999 4.13 2.75 5.83 2.75H7.95" stroke="black" stroke-width="1.5" stroke-linecap="round" stroke-linejoin="round"/>
</g>
<g id="Group_4">
<path id="Vector_3" d="M16 21.25H18.17C19.88 21.25 21.25 19.87 21.25 18.17V16.1" stroke="black" stroke-width="1.5" stroke-linecap="round" stroke-linejoin="round"/>
<path id="Vector_4" d="M2.75 16.1V18.17C2.75 19.88 4.13 21.25 5.83 21.25H7.95" stroke="black" stroke-width="1.5" stroke-linecap="round" stroke-linejoin="round"/>
</g>
</g>
<g id="Group_5">
<path id="Vector_5" d="M17.87 16.58C16.18 15.74 14.16 15.25 12 15.25C9.77 15.25 7.7 15.77 5.98 16.66" stroke="black" stroke-width="1.5" stroke-linecap="round" stroke-linejoin="round"/>
<path id="Vector_6" d="M12 11.72C13.6237 11.72 14.94 10.4037 14.94 8.78C14.94 7.15628 13.6237 5.84 12 5.84C10.3763 5.84 9.06 7.15628 9.06 8.78C9.06 10.4037 10.3763 11.72 12 11.72Z" stroke="black" stroke-width="1.5" stroke-linecap="round" stroke-linejoin="round"/>
</g>
</g>
</g>
</svg>
