<svg xmlns="http://www.w3.org/2000/svg" viewBox="0 0 50 50"><defs><style>.cls-1{fill:#5b5b5b;}</style></defs><g id="Layer_2" data-name="Layer 2"><g id="Layer_1-2" data-name="Layer 1"><path class="cls-1" d="M26.08,50A25,25,0,0,0,49.9,27.19H33.33a7.25,7.25,0,0,0-7.25,7.25Z"/><path class="cls-1" d="M50,25h0A25,25,0,0,0,26.08,0V17.77A7.26,7.26,0,0,0,33.33,25Z"/><path class="cls-1" d="M.1,27.19A25,25,0,0,0,23.92,50V34.44a7.25,7.25,0,0,0-7.25-7.25Z"/><path class="cls-1" d="M23.92,0A25,25,0,0,0,0,25H16.67a7.26,7.26,0,0,0,7.25-7.25Z"/></g></g></svg>