<svg width="40" height="40" viewBox="0 0 40 40" fill="none" xmlns="http://www.w3.org/2000/svg">
<g clip-path="url(#clip0_401_5)">
<path d="M40 20C40 8.9543 31.0457 0 20 0C8.9543 0 0 8.9543 0 20C0 31.0457 8.9543 40 20 40C31.0457 40 40 31.0457 40 20Z" fill="black"/>
<path d="M21.6649 18.6601L28.1796 11.25H26.6359L20.9791 17.684L16.461 11.25H11.25L18.0822 20.9794L11.25 28.75H12.7939L18.7676 21.9554L23.539 28.75H28.75L21.6645 18.6601H21.6649ZM19.5503 21.0651L18.8581 20.0963L13.3502 12.3872H15.7215L20.1664 18.6087L20.8587 19.5775L26.6366 27.6645H24.2653L19.5503 21.0655V21.0651Z" fill="white"/>
</g>
<defs>
<clipPath id="clip0_401_5">
<rect width="40" height="40" fill="white"/>
</clipPath>
</defs>
</svg>
